<?xml version="1.0" encoding="utf-8"?>
<!-- Generator: Adobe Illustrator 27.0.0, SVG Export Plug-In . SVG Version: 6.00 Build 0)  -->
<svg version="1.1" xmlns="http://www.w3.org/2000/svg" xmlns:xlink="http://www.w3.org/1999/xlink" x="0px" y="0px"
	 viewBox="0 0 500 500" style="enable-background:new 0 0 500 500;" xml:space="preserve">
<style type="text/css">
	.st0{display:none;}
	.st1{display:inline;fill:#E0E0E0;}
	.st2{fill:#263238;}
	.st3{fill:#00BFFF;}
	.st4{opacity:0.3;}
	.st5{fill:#B78876;}
	.st6{fill:#FAFAFA;}
	.st7{fill:#E8505B;}
	.st8{fill:#455A64;}
	.st9{fill:#E0E0E0;}
	.st10{fill:#EBEBEB;}
	.st11{fill:#AA6550;}
	.st12{fill:#FF1493;}
	.st13{opacity:0.45;}
	.st14{fill:#FF1492;}
</style>
<g id="Background_Complete">
</g>
<g id="Background_Simple" class="st0">
	<path class="st1" d="M426.76,105.41c-25.04-24.84-61.92-37.19-96.86-32.43c-34.95,4.76-67.18,26.53-84.65,57.17
		c-8.04,14.09-13.01,29.7-20.05,44.31c-7.04,14.61-16.75,28.76-31.09,36.34c-25.17,13.3-55.96,2.87-84.27,5.95
		c-33.76,3.67-64.19,28.88-74.07,61.36c-0.25,0.81-0.49,1.63-0.72,2.46c-12.16,43.74,3.2,96.81,43.87,116.97l42.63,16.83
		c82.66,40.96,179.73,27.4,255.06-25.86c0.72-0.51,1.43-1.02,2.13-1.52c44.81-32.21,73.76-83.9,83.61-138.2
		C471.51,198.37,463.13,141.5,426.76,105.41z"/>
</g>
<g id="Floor">
</g>
<g id="Character">
</g>
<g id="Speech_Bubble">
</g>
<g id="Sreen">
</g>
<g id="Plant">
	<g>
		<g>
			<path class="st2" d="M419.84,477.38c0,0.25-146.8,0.45-327.84,0.45c-181.1,0-327.87-0.2-327.87-0.45S-89.1,476.93,92,476.93
				C273.04,476.93,419.84,477.13,419.84,477.38z"/>
		</g>
	</g>
	<g>
		<polygon class="st2" points="282.76,415.49 325.07,477.02 340.19,477.38 312.46,414.11 		"/>
	</g>
	<g>
		<polygon class="st2" points="-163.65,418.64 -185.94,476.74 -174.79,476.74 -135.86,418.89 		"/>
	</g>
	<g>
		<path class="st3" d="M-173.2,207.49l1.63,75.18c0.23,10.63,8.79,19.2,19.43,19.44l420.8,9.37c11.15,0.25,20.31-8.72,20.31-19.87
			v-90.57c0-26.74-19.72-49.39-46.2-53.03c-77.03-10.59-235.91-26.88-364.31-3.74C-151.97,149.76-173.87,176.58-173.2,207.49z"/>
	</g>
	<g>
		<path class="st3" d="M-175.09,233.76c0,0-34.67-16.04-41.76,0c-7.09,16.04,0.79,35.74,8.67,46.77
			c7.88,11.03,7.75,146.55,7.75,146.55l525.72-5.62l6.23-130.37c0,0,25.21-31.05,23.64-44.44c-1.58-13.39-22.85-32.88-47.27-12.89
			c-24.42,19.98-30.73,61.74-30.73,61.74L-142,298.66C-142,298.66-140.61,239.97-175.09,233.76z"/>
	</g>
	<g>
		<g>
			<path class="st2" d="M271.8,321.54c0,0.25-93.13,0.45-207.99,0.45c-114.9,0-208.01-0.2-208.01-0.45
				c0-0.25,93.11-0.45,208.01-0.45C178.67,321.1,271.8,321.29,271.8,321.54z"/>
		</g>
	</g>
	<g>
		<g>
			<path class="st2" d="M-144.2,378.92c-0.02,0-0.03-0.14-0.05-0.41c-0.01-0.33-0.03-0.72-0.05-1.21c-0.04-1.06-0.08-2.63-0.09-4.66
				c-0.01-4.12-0.02-9.95-0.04-17.12c-0.02-14.45,0.1-34.43-0.56-56.46c-0.4-11-0.8-21.54-2.4-30.91c-0.31-1.13-0.61-2.25-0.9-3.35
				c-0.43-1.07-0.84-2.14-1.3-3.17c-0.9-2.06-1.83-4.05-2.83-5.91c-1.98-3.74-4.15-7.04-6.4-9.84c-2.25-2.8-4.58-5.09-6.79-6.89
				c-2.24-1.76-4.34-3.06-6.14-3.95c-3.61-1.77-5.84-2.21-5.8-2.33c0-0.01,0.14,0.01,0.41,0.08c0.32,0.08,0.7,0.18,1.17,0.31
				c1.04,0.25,2.52,0.79,4.37,1.64c1.84,0.86,4,2.12,6.3,3.87c2.27,1.79,4.67,4.07,6.97,6.88c2.31,2.81,4.53,6.13,6.56,9.89
				c1.03,1.87,1.98,3.87,2.9,5.95c0.46,1.04,0.89,2.11,1.33,3.2c0.32,1.14,0.64,2.3,0.96,3.48c1.67,9.49,2.09,20.02,2.49,31.04
				c0.66,22.06,0.44,42.04,0.3,56.49c-0.1,7.17-0.18,13-0.24,17.12c-0.03,1.96-0.06,3.52-0.08,4.65c-0.01,0.49-0.03,0.89-0.04,1.21
				C-144.17,378.78-144.18,378.92-144.2,378.92z"/>
		</g>
	</g>
	<g>
		<g>
			<path class="st2" d="M-179.19,264.02c-0.02-0.04,0.44-0.33,1.4-0.43c0.94-0.11,2.41,0.08,3.85,1.07c0.71,0.5,1.41,1.2,1.88,2.13
				c0.47,0.93,0.69,2.09,0.5,3.25c-0.34,2.29-2.15,4.7-4.91,5.24c-2.77,0.47-5.31-1.12-6.49-3.1c-0.62-0.99-0.87-2.14-0.83-3.17
				c0.04-1.04,0.36-1.97,0.76-2.73c0.83-1.53,2.02-2.39,2.88-2.78c0.87-0.39,1.41-0.4,1.42-0.36c0.02,0.08-0.48,0.2-1.26,0.66
				c-0.76,0.45-1.8,1.33-2.48,2.75c-0.69,1.39-0.93,3.45,0.21,5.19c1.05,1.71,3.33,3.05,5.63,2.65c2.3-0.44,3.94-2.52,4.26-4.5
				c0.4-2.04-0.7-3.82-1.94-4.74c-1.25-0.96-2.59-1.24-3.47-1.24C-178.67,263.93-179.16,264.1-179.19,264.02z"/>
		</g>
	</g>
	<g>
		<g>
			<path class="st2" d="M-176.8,297.76c-0.07,0.07-1.17-0.85-2.38-2.8c-1.21-1.93-2.41-4.99-2.45-8.53
				c-0.04-3.54,1.09-6.63,2.25-8.59c1.16-1.98,2.24-2.93,2.31-2.86c0.12,0.09-0.78,1.17-1.75,3.16c-0.98,1.97-1.95,4.93-1.91,8.28
				c0.04,3.35,1.08,6.29,2.11,8.23C-177.61,296.6-176.69,297.66-176.8,297.76z"/>
		</g>
	</g>
	<g>
		<g>
			<path class="st2" d="M-182.3,247.01c0.13,0.06-0.24,1-0.52,2.55c-0.29,1.55-0.41,3.76,0.09,6.12c0.51,2.35,1.51,4.33,2.41,5.63
				c0.9,1.31,1.61,2.01,1.52,2.12c-0.06,0.08-0.94-0.47-2.02-1.74c-1.07-1.26-2.24-3.32-2.78-5.82c-0.53-2.5-0.3-4.86,0.17-6.44
				C-182.97,247.83-182.39,246.97-182.3,247.01z"/>
		</g>
	</g>
	<g>
		<g>
			<path class="st2" d="M-192.54,265.92c0.2-0.18,1.79,1.43,4.21,2.67c2.41,1.27,4.64,1.66,4.6,1.92c0,0.23-2.43,0.23-5.01-1.13
				C-191.34,268.04-192.73,266.05-192.54,265.92z"/>
		</g>
	</g>
	<g>
		<g>
			<path class="st2" d="M327.32,378.92c0,0.25-118.58,0.45-264.83,0.45c-146.3,0-264.86-0.2-264.86-0.45s118.56-0.45,264.86-0.45
				C208.74,378.47,327.32,378.67,327.32,378.92z"/>
		</g>
	</g>
	<g>
		<g>
			<path class="st2" d="M269.98,295.93c0.25,0,0.45,18.57,0.45,41.46c0,22.91-0.2,41.47-0.45,41.47s-0.45-18.56-0.45-41.47
				C269.53,314.5,269.73,295.93,269.98,295.93z"/>
		</g>
	</g>
	<g>
		<g>
			<path class="st2" d="M94.41,152.52c0,0-0.28,0.04-0.81,0.06c-0.58,0.02-1.37,0.05-2.39,0.09c-2.14,0.06-5.23,0.15-9.19,0.26
				c-8.02,0.19-19.56,0.45-33.8,0.78c-28.58,0.57-67.99,1.37-111.52,2.24c-10.89,0.26-21.54,0.23-31.76,0.9
				c-10.21,0.68-20.08,2.11-28.92,5.28c-8.88,3.05-16.52,8.13-21.99,14.41c-2.72,3.14-5.01,6.49-6.73,9.96
				c-1.84,3.41-3.07,6.94-4.18,10.31c-2.03,6.82-2.94,13.23-3.46,18.86c-0.52,5.64-0.58,10.52-0.61,14.51
				c-0.02,3.99,0.07,7.09,0.12,9.19c0.02,1.02,0.04,1.81,0.05,2.39c0.01,0.54-0.01,0.82-0.01,0.82s-0.04-0.27-0.08-0.81
				c-0.03-0.58-0.08-1.37-0.14-2.39c-0.1-2.1-0.25-5.2-0.28-9.19c-0.03-3.99-0.02-8.89,0.46-14.55c0.48-5.65,1.35-12.1,3.35-18.99
				c1.11-3.4,2.33-6.98,4.18-10.44c1.73-3.52,4.04-6.93,6.79-10.13c5.53-6.41,13.3-11.6,22.27-14.7c8.95-3.23,18.89-4.69,29.14-5.38
				c10.28-0.69,20.92-0.66,31.8-0.92c43.53-0.77,82.95-1.47,111.52-1.98c14.24-0.21,25.78-0.38,33.81-0.5
				c3.96-0.04,7.05-0.07,9.19-0.09c1.02,0,1.81,0,2.39,0C94.14,152.5,94.41,152.52,94.41,152.52z"/>
		</g>
	</g>
	<g>
		<g>
			<path class="st2" d="M-40.16,211.07c0.03,0.08-0.57,0.29-1.45,0.95c-0.87,0.65-2.01,1.86-2.65,3.7c-0.65,1.8-0.65,4.35,0.95,6.35
				c1.51,1.98,4.41,3.38,7.25,2.73c2.83-0.7,4.79-3.26,5.24-5.7c0.53-2.51-0.63-4.79-2.02-6.1c-1.4-1.36-2.96-1.92-4.03-2.11
				c-1.08-0.19-1.71-0.11-1.72-0.19c-0.01-0.04,0.61-0.24,1.77-0.15c1.14,0.09,2.84,0.59,4.42,1.99c0.77,0.7,1.51,1.62,1.99,2.78
				c0.47,1.15,0.67,2.54,0.4,3.93c-0.47,2.74-2.59,5.61-5.84,6.42c-3.27,0.74-6.46-0.86-8.11-3.1c-0.86-1.12-1.31-2.45-1.41-3.69
				c-0.09-1.25,0.15-2.41,0.52-3.38c0.77-1.96,2.07-3.18,3.04-3.77C-40.82,211.13-40.17,211.03-40.16,211.07z"/>
		</g>
	</g>
	<g>
		<g>
			<path class="st2" d="M-47.37,255.36c-0.1,0.02-0.72-1.87-1.3-5.05c-0.54-3.15-1.04-7.75,0.27-12.61
				c1.34-4.88,4.54-8.51,7.37-10.16c1.41-0.84,2.68-1.28,3.58-1.45c0.89-0.18,1.4-0.18,1.41-0.13c0.05,0.18-2.02,0.35-4.65,2.11
				c-2.61,1.7-5.58,5.22-6.85,9.86c-1.26,4.66-0.89,9.14-0.5,12.28C-47.64,253.38-47.23,255.33-47.37,255.36z"/>
		</g>
	</g>
	<g>
		<g>
			<path class="st2" d="M-41.14,184.67c0.12,0.12-1.23,1.29-2.52,3.77c-1.29,2.42-2.37,6.34-1.44,10.47
				c0.95,4.13,3.62,7.19,5.84,8.81c2.24,1.67,3.97,2.15,3.9,2.3c-0.02,0.05-0.46-0.02-1.22-0.26c-0.77-0.25-1.84-0.73-3.05-1.52
				c-2.4-1.55-5.32-4.72-6.34-9.13c-0.99-4.41,0.26-8.53,1.75-10.97c0.74-1.24,1.5-2.14,2.08-2.7
				C-41.55,184.88-41.18,184.63-41.14,184.67z"/>
		</g>
	</g>
	<g>
		<g>
			<path class="st2" d="M-42.71,218.88c0.02,0.28-4.31,0.39-9.27,2.09c-4.98,1.65-8.49,4.17-8.65,3.94
				c-0.15-0.15,3.22-3.07,8.37-4.78C-47.13,218.38-42.68,218.67-42.71,218.88z"/>
		</g>
	</g>
	<g class="st4">
		<g>
			<path d="M-97.93,323.1c16.36,12.65,37.46,19.01,58.09,17.52c-4.32,20.09-8.64,40.19-12.96,60.28
				c-1.15,5.36-2.22,11.32,0.58,16.04c3.93,6.61,13.07,7.27,20.76,7.16c8.56-0.12,17.48-0.32,25.07-4.29
				c10.75-5.62,16.52-17.5,20.7-28.89c4.17-11.39,7.77-23.58,16.35-32.15c9.73,11.15,23.3,18.88,37.86,21.56
				c4.28,0.79,9.12,1.02,12.56-1.66c3.41-2.66,4.39-7.56,3.52-11.79c-0.87-4.23-3.26-7.98-5.6-11.61
				c-8.34-12.93-16.67-25.87-25.01-38.81c-3.38-5.25-7.09-10.78-12.81-13.28c-4.49-1.96-9.59-1.77-14.48-1.48
				c-40.83,2.37-81.43,8.51-121.14,18.32"/>
		</g>
	</g>
	<g class="st4">
		<g>
			<path d="M35.75,130.75c-10.12,26.73-47.9,32.86-61.16,58.18c-13.12,25.03,3.14,58.19-10.37,83.01c-5,9.19-13.59,16.05-18.48,25.3
				c-3.29,6.23-4.99,13.64-10.3,18.27c-6.19,5.4-15.77,5.29-23.2,1.8c-7.43-3.49-13.16-9.74-18.45-16.02
				c-9.92-11.76-19.23-24.48-23.87-39.15c-7.98-25.26-0.67-53.81,15.34-74.91s39.77-35.33,64.85-43.85s51.61-11.75,77.98-14.22"/>
		</g>
	</g>
	<g>
		<path class="st2" d="M-85.78,60.45c3.93-5.85,9.05-11.02,15.33-14.21c6.28-3.19,13.79-4.25,20.49-2.06
			c6.7,2.19,12.35,7.86,13.72,14.77c1.08,5.48-0.38,11.6,2.45,16.41c3.26,5.54,11.1,7.29,13.85,13.1c1.66,3.5,0.99,7.74-0.83,11.16
			c-1.82,3.41-4.66,6.16-7.51,8.78c1.72,1.22,3.47,2.49,4.68,4.21c1.21,1.73,1.81,4.04,1,5.98c-0.86,2.06-3.01,3.23-5.07,4.1
			c-9.47,4.01-20.19,5.02-30.24,2.84c-2.7-0.59-5.79-1.32-8.01,0.32"/>
	</g>
	<g>
		<path class="st5" d="M-17.35,80.73l-5.53,16.75l37.38,21.2l-37.58,1.22l2.81,30.47l72.37-17.77
			C52.11,132.6,56.45,103.08-17.35,80.73l-5.19-1.22c-1.88-0.44-3.43-1.78-4.13-3.58l0,0c-0.56-1.42-1.61-2.59-2.96-3.29l-6.16-3.22
			l0.04,4.89l3.39,3.98l-0.54,9.45c-0.29,4.18,2.49,7.95,6.57,8.91l3.46,0.82"/>
	</g>
	<g>
		<g>
			<g>
				<path class="st6" d="M-99.21,141.24c-1.48,0-15.28,3.35-23.17,13.4c-7.89,10.05-19.32,47.74-19.32,47.74l29.09,5.03l12.54,31.51
					c0,0,74.26-9.73,70.31-13.64c-3.94-3.91-12.06-9.94-12.06-9.94l17.12-56.93l20.55-11.08l-6.91-28.44l-41.32,5.59L-99.21,141.24z
					"/>
			</g>
			<g>
				<g>
					<path class="st7" d="M-28.21,171.54c0,0.25-23.15,0.45-51.71,0.45c-28.56,0-51.71-0.2-51.71-0.45c0-0.25,23.15-0.45,51.71-0.45
						C-51.36,171.1-28.21,171.3-28.21,171.54z"/>
				</g>
			</g>
			<g>
				<g>
					<path class="st7" d="M-32.84,188.28c0,0.25-23.15,0.45-51.71,0.45c-28.56,0-51.71-0.2-51.71-0.45c0-0.25,23.15-0.44,51.71-0.44
						C-55.99,187.83-32.84,188.03-32.84,188.28z"/>
				</g>
			</g>
			<g>
				<g>
					<path class="st7" d="M-32.84,206.35c0,0.25-17.54,0.45-39.16,0.45c-21.63,0-39.17-0.2-39.17-0.45s17.53-0.45,39.17-0.45
						C-50.38,205.91-32.84,206.11-32.84,206.35z"/>
				</g>
			</g>
			<g>
				<g>
					<path class="st7" d="M-26.83,223.76c0,0.25-17.54,0.45-39.16,0.45c-21.63,0-39.17-0.2-39.17-0.45c0-0.25,17.53-0.44,39.17-0.44
						C-44.37,223.31-26.83,223.51-26.83,223.76z"/>
				</g>
			</g>
			<g>
				<g>
					<path class="st7" d="M-8.29,149.04c0,0.25-11.58,0.45-25.87,0.45c-14.29,0-25.87-0.2-25.87-0.45s11.58-0.45,25.87-0.45
						C-19.87,148.6-8.29,148.79-8.29,149.04z"/>
				</g>
			</g>
			<g>
				<g>
					<path class="st7" d="M-6.41,131.3c0.01,0.25-11.53,0.71-25.77,1.05c-14.24,0.33-25.79,0.4-25.79,0.16
						c-0.01-0.25,11.53-0.71,25.77-1.05C-17.96,131.12-6.41,131.05-6.41,131.3z"/>
				</g>
			</g>
		</g>
		<g>
			<g>
				<path class="st2" d="M-106.58,180.23c0.24,0.06-1,6.32-2.78,13.98c-1.77,7.67-3.41,13.84-3.64,13.78
					c-0.24-0.06,1-6.31,2.78-13.98C-108.45,186.35-106.82,180.18-106.58,180.23z"/>
			</g>
		</g>
	</g>
	<g>
		<g>
			<polygon class="st5" points="-25.74,393.64 -47.39,461.9 -21.29,464.51 3.22,405.22 			"/>
		</g>
		<g>
			<g>
				<g>
					<path class="st8" d="M-6.65,437.96l-12.43,30.82c0,0,27.15,22.98,25.41,28.9l-60.62-21.95l17.4-48.81L-6.65,437.96z"/>
				</g>
				<g>
					<g>
						<path class="st9" d="M-36.87,459.37c-1.29-0.1-2.58,0.92-2.73,2.21c-0.16,1.28,0.87,2.6,2.16,2.73
							c1.29,0.13,2.87-1.06,2.88-2.35c0.01-1.29-1.28-2.78-2.56-2.59"/>
					</g>
				</g>
				<g>
					<path class="st9" d="M-54.29,475.73l1.95-4.85l57.4,22.86c0,0,2.27,2.15,1.28,3.94L-54.29,475.73z"/>
				</g>
				<g>
					<g>
						<path class="st2" d="M-17.99,468.83c-0.12,0.29-1.65-0.11-3.45,0.32c-1.81,0.38-3.03,1.39-3.26,1.17
							c-0.25-0.16,0.83-1.77,3.02-2.24C-19.48,467.58-17.82,468.58-17.99,468.83z"/>
					</g>
				</g>
				<g>
					<g>
						<path class="st2" d="M-12.58,473.76c-0.04,0.31-1.5,0.35-2.96,1.24c-1.48,0.84-2.23,2.11-2.52,1.99
							c-0.3-0.05,0.13-1.86,1.96-2.93C-14.27,472.97-12.48,473.48-12.58,473.76z"/>
					</g>
				</g>
				<g>
					<g>
						<path class="st2" d="M-11.72,482.68c-0.29-0.03-0.17-1.66,1.18-3.01c1.34-1.36,2.97-1.49,3-1.2c0.08,0.3-1.13,0.85-2.22,1.97
							C-10.88,481.54-11.42,482.76-11.72,482.68z"/>
					</g>
				</g>
				<g>
					<g>
						<path class="st2" d="M-15.93,461.49c-0.22,0.22-1.43-0.68-3.15-1.17c-1.7-0.53-3.21-0.44-3.27-0.75
							c-0.09-0.28,1.57-0.91,3.59-0.3C-16.75,459.87-15.7,461.31-15.93,461.49z"/>
					</g>
				</g>
			</g>
			<g>
				<g>
					<path class="st2" d="M-13.54,455.23c-0.04,0.12-1.28-0.12-3.03-1.12c-0.87-0.5-1.86-1.2-2.82-2.13
						c-0.48-0.46-0.96-0.98-1.41-1.56c-0.21-0.28-0.48-0.58-0.66-1.05c-0.22-0.43-0.12-1.28,0.43-1.62c0.48-0.35,1.1-0.36,1.54-0.21
						c0.45,0.15,0.78,0.37,1.08,0.57c0.62,0.41,1.17,0.86,1.65,1.33c0.97,0.95,1.67,1.95,2.13,2.85c0.93,1.81,1.01,3.09,0.89,3.11
						c-0.17,0.05-0.52-1.13-1.56-2.72c-0.52-0.79-1.23-1.68-2.16-2.51c-0.46-0.41-0.98-0.81-1.55-1.17c-0.58-0.4-1.13-0.6-1.39-0.38
						c-0.1,0.09-0.12,0.13-0.06,0.36c0.08,0.22,0.27,0.49,0.49,0.77c0.41,0.54,0.84,1.04,1.27,1.5c0.87,0.91,1.75,1.63,2.53,2.19
						C-14.59,454.57-13.48,455.07-13.54,455.23z"/>
				</g>
			</g>
			<g>
				<g>
					<path class="st2" d="M-14.08,455.51c-0.12,0.01-0.32-1.27,0.26-3.22c0.29-0.97,0.81-2.09,1.62-3.17
						c0.41-0.54,0.89-1.07,1.44-1.56c0.57-0.47,1.3-1.12,2.49-0.83c0.61,0.19,0.94,0.84,0.96,1.31c0.05,0.48-0.04,0.85-0.09,1.23
						c-0.14,0.75-0.41,1.44-0.74,2.05c-0.66,1.22-1.58,2.1-2.43,2.67c-1.75,1.14-3.12,1.05-3.11,0.94
						c-0.04-0.18,1.19-0.38,2.65-1.56c0.72-0.58,1.47-1.42,1.99-2.5c0.26-0.54,0.47-1.14,0.58-1.77c0.14-0.68,0.09-1.29-0.18-1.31
						c-0.3-0.11-0.99,0.19-1.42,0.61c-0.51,0.43-0.96,0.9-1.35,1.37c-0.78,0.96-1.32,1.95-1.69,2.82
						C-13.82,454.3-13.9,455.53-14.08,455.51z"/>
				</g>
			</g>
		</g>
	</g>
	<g>
		<polygon class="st5" points="56.38,329.39 88.69,385.53 115.11,368.58 82.67,311.58 		"/>
	</g>
	<g>
		<g>
			<g>
				<path class="st8" d="M105.99,352.54l16.69,28.74c0,0,34.82-7.31,38.42-2.3l-54.56,34.35L78.7,369.62L105.99,352.54z"/>
			</g>
			<g>
				<g>
					<path class="st9" d="M104.32,389.54c-0.87,0.95-0.86,2.6,0.06,3.51c0.92,0.91,2.59,0.91,3.48-0.03
						c0.89-0.94,0.93-2.92-0.08-3.72c-1.01-0.8-2.98-0.69-3.62,0.43"/>
				</g>
			</g>
			<g>
				<path class="st9" d="M106.54,413.33l-2.63-4.52l53.3-31.25c0,0,3.09-0.47,3.9,1.41L106.54,413.33z"/>
			</g>
			<g>
				<g>
					<path class="st2" d="M123.39,380.44c0.16,0.27-1.1,1.23-1.87,2.91c-0.82,1.66-0.76,3.24-1.08,3.29
						c-0.28,0.1-0.88-1.74,0.09-3.76C121.48,380.86,123.29,380.16,123.39,380.44z"/>
				</g>
			</g>
			<g>
				<g>
					<path class="st2" d="M130.6,379.21c0.22,0.22-0.65,1.4-0.84,3.1c-0.25,1.69,0.29,3.05,0.02,3.21c-0.22,0.2-1.39-1.24-1.11-3.35
						C128.94,380.06,130.44,378.96,130.6,379.21z"/>
				</g>
			</g>
			<g>
				<g>
					<path class="st2" d="M138.17,384.01c-0.21,0.21-1.42-0.89-1.65-2.78c-0.25-1.89,0.65-3.26,0.9-3.1
						c0.29,0.12-0.03,1.42,0.19,2.97C137.78,382.65,138.41,383.82,138.17,384.01z"/>
				</g>
			</g>
			<g>
				<g>
					<path class="st2" d="M118.86,374.32c0.04,0.31-1.41,0.72-2.85,1.77c-1.46,1.02-2.32,2.26-2.6,2.12
						c-0.28-0.1,0.25-1.8,1.96-3.02C117.08,373.96,118.86,374.02,118.86,374.32z"/>
				</g>
			</g>
		</g>
		<g>
			<g>
				<path class="st2" d="M115.39,368.58c0.07,0.11-0.88,0.94-2.74,1.71c-0.93,0.38-2.09,0.73-3.41,0.92
					c-0.66,0.1-1.36,0.15-2.09,0.16c-0.35,0-0.75,0.02-1.23-0.12c-0.47-0.09-1.08-0.69-1.01-1.34c0.02-0.6,0.4-1.09,0.78-1.34
					c0.39-0.27,0.77-0.39,1.11-0.5c0.7-0.24,1.4-0.39,2.07-0.49c1.34-0.18,2.57-0.12,3.56,0.07c2,0.38,3.06,1.1,3,1.21
					c-0.07,0.16-1.21-0.28-3.1-0.44c-0.95-0.08-2.08-0.06-3.3,0.16c-0.61,0.11-1.24,0.28-1.87,0.5c-0.67,0.21-1.17,0.52-1.15,0.87
					c0.01,0.13,0.03,0.18,0.25,0.27c0.22,0.08,0.55,0.08,0.9,0.09c0.68,0.01,1.34-0.02,1.96-0.08c1.25-0.13,2.36-0.38,3.28-0.65
					C114.23,369.01,115.3,368.43,115.39,368.58z"/>
			</g>
		</g>
		<g>
			<g>
				<path class="st2" d="M115.28,369.18c-0.07,0.1-1.2-0.52-2.38-2.19c-0.58-0.83-1.15-1.92-1.51-3.23c-0.18-0.65-0.3-1.36-0.35-2.1
					c-0.02-0.74-0.08-1.71,0.87-2.48c0.53-0.36,1.24-0.22,1.62,0.04c0.41,0.26,0.65,0.55,0.91,0.83c0.5,0.57,0.88,1.21,1.16,1.84
					c0.56,1.27,0.69,2.53,0.61,3.56c-0.18,2.09-1.09,3.1-1.17,3.03c-0.17-0.08,0.43-1.18,0.39-3.05c-0.02-0.92-0.22-2.03-0.75-3.11
					c-0.26-0.54-0.61-1.07-1.04-1.55c-0.45-0.53-0.96-0.86-1.14-0.66c-0.27,0.17-0.46,0.89-0.39,1.5c0.03,0.67,0.12,1.31,0.26,1.91
					c0.28,1.2,0.72,2.24,1.19,3.06C114.49,368.23,115.4,369.05,115.28,369.18z"/>
			</g>
		</g>
	</g>
	<g>
		<g>
			<path class="st2" d="M-39.77,321.47l63.43-43.13l40.01,77.89l36.38-19.69c0,0-41.9-102.17-56.94-105.47
				c-8.43-1.85-105.06,16.61-105.06,16.61l-10.8-5.43l-27.33-3.32l-1.75,4.42c-9.66,24.44-8.55,51.83,3.04,75.41l1.33,2.71H-39.77z"
				/>
		</g>
		<g>
			<path class="st2" d="M-62.04,267.52c0.47,2.14,52.91,51.24,52.91,51.24l-30.26,101.68l45.16,8.64l45.34-122.49l-82.88-81.3
				l-37.85,15.93L-62.04,267.52z"/>
		</g>
		<g>
			<g>
				<path class="st8" d="M23.66,278.34c0.14,0.2-13.95,10.02-31.46,21.93c-17.52,11.91-31.83,21.4-31.97,21.2
					c-0.14-0.2,13.95-10.02,31.47-21.94C9.21,287.62,23.53,278.13,23.66,278.34z"/>
			</g>
		</g>
		<g>
			<g>
				<path class="st8" d="M56.22,341.72c-0.05,0.03-0.6-0.81-1.53-2.35c-0.95-1.54-2.25-3.8-3.83-6.61
					c-3.15-5.63-7.36-13.49-11.81-22.27c-4.46-8.78-8.36-16.79-11.12-22.62c-1.38-2.92-2.47-5.29-3.21-6.93
					c-0.74-1.65-1.11-2.57-1.06-2.6c0.06-0.03,0.54,0.85,1.37,2.45c0.89,1.74,2.05,4.04,3.46,6.81c2.97,5.89,6.95,13.78,11.35,22.49
					c4.45,8.77,8.56,16.67,11.57,22.37c1.46,2.74,2.66,5.01,3.58,6.74C55.84,340.79,56.28,341.69,56.22,341.72z"/>
			</g>
		</g>
		<g>
			<g>
				<path class="st8" d="M0.35,300.61c0.22,0.11-1.96,4.99-4.85,10.9c-2.9,5.9-5.43,10.61-5.65,10.5c-0.22-0.1,1.95-4.98,4.85-10.9
					C-2.39,305.2,0.14,300.5,0.35,300.61z"/>
			</g>
		</g>
	</g>
	<g>
		<path class="st5" d="M-141.7,202.39l-10.19,37.88c-1.32,4.9-0.71,10.12,1.69,14.59l0,0c4.25,7.89,13.25,11.96,21.98,9.94
			l81.27-20.02l-8.5-16.88l-64.03,5.55l6.86-26.03L-141.7,202.39z"/>
	</g>
	<g>
		<g>
			<polygon class="st8" points="-105.65,259.88 -104.59,254.38 -60.55,246.46 -47.75,178.56 34.06,168.81 20.31,241.3 			"/>
		</g>
		<g>
			<path class="st10" d="M-11.01,215.12c-2.14-0.41-3.5-2.75-3.02-5.23c0.48-2.47,2.6-4.14,4.75-3.73c2.14,0.41,3.5,2.75,3.02,5.23
				C-6.75,213.87-8.87,215.54-11.01,215.12z"/>
		</g>
	</g>
	<g>
		<g>
			<g>
				<g>
					<g>
						<g>
							<g>
								<path class="st5" d="M-93.68,65.14l0.15,4.91l1.84,73.51c0.21,8.53,7.72,15.15,16.86,14.85h0
									c9.23-0.3,16.64-7.53,16.57-16.16c-0.08-9.05,0.01-18.58,0.01-18.58s11.64-2.07,13.88-17.31
									c1.11-7.58,0.59-19.98-0.17-30.11c-0.68-9.12-8.81-15.84-17.89-14.77L-93.68,65.14z"/>
							</g>
						</g>
					</g>
				</g>
			</g>
			<g>
				<g>
					<g>
						<g>
							<g>
								<g>
									<path class="st2" d="M-50.44,84.72c0.05,1.03-0.78,1.92-1.86,1.99c-1.07,0.07-1.98-0.71-2.03-1.74
										c-0.05-1.03,0.78-1.92,1.86-1.99C-51.4,82.91-50.49,83.69-50.44,84.72z"/>
								</g>
							</g>
						</g>
					</g>
				</g>
				<g>
					<g>
						<g>
							<g>
								<g>
									<g>
										<path class="st2" d="M-47.16,82.72c-0.24,0.26-1.73-0.82-3.83-0.79c-2.1,0-3.63,1.1-3.86,0.84
											c-0.11-0.11,0.13-0.57,0.79-1.07c0.65-0.49,1.78-0.98,3.08-0.99c1.31-0.01,2.41,0.46,3.05,0.95
											C-47.27,82.15-47.04,82.61-47.16,82.72z"/>
									</g>
								</g>
							</g>
						</g>
					</g>
				</g>
			</g>
			<g>
				<g>
					<g>
						<g>
							<g>
								<g>
									<path class="st2" d="M-71.16,85.47c0.05,1.03-0.78,1.92-1.86,1.99c-1.07,0.07-1.98-0.71-2.03-1.74
										c-0.05-1.03,0.78-1.92,1.86-1.99C-72.12,83.66-71.21,84.44-71.16,85.47z"/>
								</g>
							</g>
						</g>
					</g>
				</g>
				<g>
					<g>
						<g>
							<g>
								<g>
									<g>
										<path class="st2" d="M-67.79,83.36c-0.24,0.26-1.73-0.82-3.83-0.79c-2.1,0-3.63,1.1-3.86,0.84
											c-0.11-0.11,0.13-0.57,0.79-1.07c0.65-0.49,1.78-0.98,3.08-0.99c1.31-0.01,2.41,0.46,3.05,0.95
											C-67.9,82.78-67.68,83.24-67.79,83.36z"/>
									</g>
								</g>
							</g>
						</g>
					</g>
				</g>
			</g>
			<g>
				<g>
					<g>
						<g>
							<g>
								<g>
									<path class="st2" d="M-59.99,98.84c-0.01-0.12,1.29-0.36,3.4-0.65c0.54-0.06,1.04-0.17,1.13-0.54
										c0.12-0.39-0.11-0.96-0.38-1.58c-0.52-1.29-1.06-2.65-1.63-4.06c-2.27-5.79-3.92-10.55-3.68-10.64
										c0.23-0.09,2.26,4.53,4.53,10.32c0.55,1.43,1.07,2.79,1.57,4.09c0.21,0.61,0.57,1.29,0.3,2.1c-0.14,0.4-0.53,0.7-0.87,0.79
										c-0.34,0.11-0.64,0.12-0.91,0.14C-58.66,98.93-59.98,98.96-59.99,98.84z"/>
								</g>
							</g>
						</g>
					</g>
				</g>
			</g>
			<g>
				<g>
					<g>
						<g>
							<g>
								<path class="st11" d="M-58.25,123.67c0,0-10.23,0.78-20.44-5.2c0,0,5.06,10.39,20.27,8.79L-58.25,123.67z"/>
							</g>
						</g>
					</g>
				</g>
			</g>
			<g>
				<g>
					<g>
						<g>
							<g>
								<path class="st2" d="M-66.95,79.9c-0.23,0.56-2.32,0.19-4.79,0.38c-2.48,0.13-4.5,0.76-4.8,0.24
									c-0.13-0.25,0.24-0.77,1.06-1.29c0.82-0.51,2.11-0.98,3.6-1.08c1.48-0.09,2.83,0.2,3.71,0.61
									C-67.28,79.16-66.85,79.63-66.95,79.9z"/>
							</g>
						</g>
					</g>
				</g>
			</g>
			<g>
				<g>
					<g>
						<g>
							<g>
								<path class="st2" d="M-48.04,75.44c-0.36,0.48-1.82,0-3.56,0c-1.74-0.06-3.21,0.36-3.55-0.14
									c-0.15-0.24,0.08-0.72,0.71-1.18c0.63-0.46,1.69-0.84,2.88-0.82c1.2,0.02,2.24,0.44,2.85,0.93
									C-48.09,74.72-47.88,75.21-48.04,75.44z"/>
							</g>
						</g>
					</g>
				</g>
			</g>
			<g>
				<g>
					<path class="st11" d="M-60.22,106.44c-0.59,0.18-1.23-0.03-1.83-0.19c-0.6-0.17-1.16-0.33-1.63-0.49
						c-0.47-0.16-1.02-0.37-1.6-0.59c-0.57-0.23-1.21-0.44-1.58-0.94c-0.36-0.47-0.29-1.3,0.53-2.03c0.78-0.72,2.37-1.22,4.05-0.67
						c1.68,0.56,2.65,1.91,2.85,2.95C-59.22,105.57-59.65,106.28-60.22,106.44z"/>
				</g>
			</g>
			<g>
				<g>
					<path class="st2" d="M-59.93,106.26c-0.2,0.14-1.22-1.95-3.68-2.59c-2.46-0.62-4.36,0.72-4.47,0.5
						c-0.07-0.08,0.28-0.56,1.11-0.99c0.81-0.43,2.16-0.74,3.58-0.38c1.42,0.37,2.45,1.28,2.96,2.05
						C-59.91,105.63-59.83,106.22-59.93,106.26z"/>
				</g>
			</g>
		</g>
		<g>
			<path class="st2" d="M-76.08,55.22c4.86,7.25,3.63,17.95-2.76,23.9c-3.64,3.39-9.05,6.03-9.42,10.99
				c-0.41,5.49,5.95,9.6,5.96,15.1c0.01,5.66-6.52,9.27-7.79,14.78c-1.02,4.44,1.63,8.89,4.71,12.25c3.08,3.36,6.77,6.35,8.62,10.51
				c2.04,4.59,1.46,10.02-0.52,14.64c-1.98,4.62-5.23,8.56-8.59,12.3c-4.54-1.63-9.28-2.69-14.08-3.13c0.3-1.82,0.6-3.63,0.9-5.45
				c0.1,2.11-1.67,3.96-3.68,4.62c-2.01,0.66-4.19,0.41-6.28,0.08c-6.4-1.01-12.71-2.63-18.81-4.83c2.6-2.61,5.25-5.28,6.87-8.59
				c1.62-3.31,2.06-7.43,0.19-10.6c-1.5-2.55-4.27-4.2-5.65-6.81c-2.07-3.93-0.37-8.92,2.58-12.25c2.95-3.32,6.93-5.51,10.43-8.24
				c3.5-2.73,6.72-6.43,7-10.86c0.37-5.75-4.29-10.99-3.72-16.73c0.65-6.53,7.56-10.52,10.27-16.5c1.96-4.33,1.7-9.66,4.71-13.34
				c2.23-2.72,5.94-3.95,9.45-3.76c3.51,0.18,6.85,1.62,9.85,3.46"/>
		</g>
		<g>
			<path class="st2" d="M-56.98,125.3c-2.75,1.52-2.59,5.69-0.92,8.35c1.67,2.66,4.37,4.55,6.02,7.22
				c2.95,4.76,1.67,11.67-2.78,15.07l6.57,2.48l1.43-0.81l4.03-2.28l-1.89,4.66l4.2,0c4.42,0.05,8.77-2.56,10.8-6.48
				c2.03-3.92,1.66-8.98-0.93-12.56c-1.73-2.39-4.41-4.3-5-7.19c-0.7-3.49,1.93-6.65,3.22-9.97c2.16-5.54,0.18-12.41-4.59-15.95"/>
		</g>
	</g>
	<g>
		<g>
			<g>
				<g>
					<g>
						<path class="st2" d="M439.39,435.95c0.02-0.01-0.08-0.25-0.29-0.7c-0.23-0.49-0.54-1.16-0.94-2c-0.8-1.77-1.84-4.45-2.76-8.01
							c-1.83-7.13-2.46-18.02,0.24-30.95c1.25-6.48,3.27-13.42,5.74-20.79c2.43-7.38,5.25-15.21,7.56-23.67
							c2.28-8.44,4.08-17.61,3.73-27.21c-0.35-9.63-3.2-19.24-6.33-28.8c-3.13-9.58-6.36-18.94-7.33-28.36
							c-1.1-9.4,0.92-18.63,5.2-26.19c4.15-7.64,9.37-14.18,13.27-20.95c3.97-6.75,6.45-13.69,7.98-20.14
							c2.96-13.01,1.93-23.98,0.51-31.2c-1.54-7.26-3.26-11.02-3.26-11.02c-0.02,0.01,0.05,0.25,0.19,0.73
							c0.16,0.52,0.38,1.22,0.66,2.11c0.57,1.86,1.32,4.63,2.02,8.25c1.3,7.21,2.21,18.1-0.81,30.97c-1.56,6.38-4.05,13.23-8,19.89
							c-3.9,6.69-9.14,13.2-13.37,20.93c-4.37,7.65-6.48,17.18-5.36,26.73c0.98,9.58,4.23,19,7.35,28.57
							c3.13,9.56,5.95,19.06,6.31,28.53c0.36,9.46-1.4,18.54-3.64,26.94c-2.27,8.42-5.06,16.25-7.46,23.65
							c-2.44,7.39-4.43,14.39-5.65,20.91c-2.63,13.03-1.88,24.03,0.08,31.18c0.99,3.58,2.09,6.25,2.95,8
							c0.43,0.83,0.78,1.48,1.03,1.97C439.25,435.74,439.38,435.96,439.39,435.95z"/>
					</g>
				</g>
			</g>
		</g>
	</g>
	<g>
		<g>
			<g>
				<g>
					<path class="st12" d="M452.17,224.99c0,0,7.93-25.36-6.3-40.21c-0.5-0.52-1.38-0.27-1.51,0.44
						C443.61,189.4,442.66,202.16,452.17,224.99z"/>
				</g>
			</g>
		</g>
	</g>
	<g>
		<g>
			<g>
				<g>
					<g>
						<path class="st2" d="M447.42,193.22c-0.13,0.03,0.09,1.81,0.53,4.68c0.52,3.22,1.13,7.01,1.81,11.19
							c0.66,4.18,1.26,7.96,1.78,11.19c0.43,2.86,0.69,4.64,0.84,4.63c0.13-0.01,0.12-1.81-0.14-4.71
							c-0.26-2.9-0.77-6.88-1.49-11.26c-0.72-4.38-1.48-8.32-2.1-11.16C448.02,194.94,447.55,193.2,447.42,193.22z"/>
					</g>
				</g>
			</g>
		</g>
	</g>
	<g>
		<g>
			<g>
				<g>
					<path class="st12" d="M442.85,284.81c0,0-4.85-26.13-24.37-32.6c-0.69-0.23-1.35,0.4-1.13,1.09
						C418.64,257.35,423.77,269.07,442.85,284.81z"/>
				</g>
			</g>
		</g>
	</g>
	<g>
		<g>
			<g>
				<g>
					<g>
						<path class="st2" d="M423.8,258.95c-0.11,0.09,0.93,1.56,2.66,3.89c1.97,2.61,4.28,5.66,6.83,9.04
							c2.54,3.39,4.84,6.45,6.8,9.06c1.72,2.33,2.78,3.78,2.91,3.7c0.11-0.07-0.75-1.66-2.33-4.1c-1.59-2.44-3.9-5.72-6.59-9.26
							c-2.68-3.53-5.2-6.66-7.07-8.88C425.14,260.18,423.91,258.87,423.8,258.95z"/>
					</g>
				</g>
			</g>
		</g>
	</g>
	<g>
		<g>
			<g>
				<g>
					<path class="st12" d="M448.13,350.35c0,0,2.95-26.41-13.85-38.27c-0.59-0.42-1.41-0.01-1.4,0.72
						C432.93,317.05,434.43,329.75,448.13,350.35z"/>
				</g>
			</g>
		</g>
	</g>
	<g>
		<g>
			<g>
				<g>
					<g>
						<path class="st2" d="M437.4,320.08c-0.13,0.05,0.44,1.76,1.42,4.49c1.13,3.06,2.45,6.66,3.91,10.64
							c1.45,3.98,2.76,7.58,3.88,10.64c0.97,2.73,1.57,4.42,1.71,4.38c0.12-0.03-0.23-1.8-1.04-4.6c-0.81-2.79-2.07-6.61-3.61-10.77
							c-1.54-4.16-3.04-7.88-4.19-10.55C438.32,321.64,437.53,320.03,437.4,320.08z"/>
					</g>
				</g>
			</g>
		</g>
	</g>
	<g>
		<g>
			<g>
				<g>
					<path class="st12" d="M433.42,416.28c0,0,2-26.5-15.21-37.75c-0.6-0.39-1.41,0.04-1.37,0.76
						C417.04,383.54,419,396.19,433.42,416.28z"/>
				</g>
			</g>
		</g>
	</g>
	<g>
		<g>
			<g>
				<g>
					<g>
						<path class="st2" d="M421.62,386.41c-0.13,0.06,0.5,1.74,1.58,4.44c1.24,3.02,2.69,6.57,4.29,10.49
							c1.59,3.92,3.03,7.47,4.26,10.5c1.07,2.69,1.72,4.36,1.86,4.32c0.12-0.04-0.3-1.79-1.2-4.56c-0.91-2.76-2.31-6.53-4-10.63
							c-1.69-4.1-3.32-7.77-4.56-10.39C422.6,387.94,421.75,386.36,421.62,386.41z"/>
					</g>
				</g>
			</g>
		</g>
	</g>
	<g>
		<g>
			<g>
				<g>
					<path class="st12" d="M463.57,202.7c0,0,23.56-12.3,24.02-32.86c0.02-0.72-0.78-1.17-1.37-0.76
						C482.71,171.5,473.01,179.84,463.57,202.7z"/>
				</g>
			</g>
		</g>
	</g>
	<g>
		<g>
			<g>
				<g>
					<g>
						<path class="st2" d="M482.69,176.9c-0.11-0.08-1.22,1.34-2.93,3.68c-1.91,2.65-4.16,5.75-6.64,9.18
							c-2.49,3.42-4.74,6.52-6.66,9.16c-1.72,2.33-2.79,3.77-2.68,3.86c0.1,0.08,1.37-1.2,3.24-3.43c1.87-2.23,4.33-5.41,6.92-9.01
							c2.59-3.6,4.84-6.92,6.41-9.37C481.91,178.54,482.81,176.98,482.69,176.9z"/>
					</g>
				</g>
			</g>
		</g>
	</g>
	<g>
		<g>
			<g>
				<g>
					<path class="st12" d="M438.27,257.17c0,0,24.26-10.85,25.97-31.34c0.06-0.72-0.71-1.22-1.32-0.84
						C459.28,227.19,449.09,234.93,438.27,257.17z"/>
				</g>
			</g>
		</g>
	</g>
	<g>
		<g>
			<g>
				<g>
					<g>
						<path class="st2" d="M458.93,232.58c-0.11-0.08-1.3,1.27-3.15,3.5c-2.07,2.52-4.5,5.49-7.19,8.76
							c-2.69,3.27-5.13,6.22-7.21,8.74c-1.86,2.22-3.02,3.59-2.91,3.69c0.09,0.09,1.44-1.11,3.44-3.23c2-2.12,4.65-5.14,7.45-8.57
							c2.81-3.43,5.25-6.61,6.97-8.96C458.05,234.17,459.04,232.67,458.93,232.58z"/>
					</g>
				</g>
			</g>
		</g>
	</g>
	<g>
		<g>
			<g>
				<g>
					<path class="st12" d="M452.23,317.93c0,0,16.66-20.71,8.84-39.73c-0.27-0.67-1.18-0.76-1.56-0.15
						C457.28,281.67,451.73,293.2,452.23,317.93z"/>
				</g>
			</g>
		</g>
	</g>
	<g>
		<g>
			<g>
				<g>
					<g>
						<path class="st2" d="M459.42,286.63c-0.14-0.02-0.58,1.72-1.21,4.55c-0.69,3.19-1.51,6.94-2.41,11.07
							c-0.91,4.13-1.74,7.87-2.44,11.06c-0.64,2.82-1.05,4.57-0.91,4.62c0.12,0.04,0.77-1.65,1.59-4.44
							c0.82-2.79,1.8-6.69,2.73-11.03c0.93-4.33,1.66-8.28,2.13-11.15C459.36,288.44,459.56,286.65,459.42,286.63z"/>
					</g>
				</g>
			</g>
		</g>
	</g>
	<g>
		<g>
			<g>
				<g>
					<path class="st12" d="M435.73,389.43c0,0,24.07-11.25,25.44-31.77c0.05-0.72-0.73-1.2-1.34-0.82
						C456.23,359.1,446.17,367,435.73,389.43z"/>
				</g>
			</g>
		</g>
	</g>
	<g>
		<g>
			<g>
				<g>
					<g>
						<path class="st2" d="M455.98,364.49c-0.11-0.08-1.27,1.29-3.09,3.55c-2.03,2.56-4.41,5.56-7.04,8.88
							c-2.64,3.31-5.03,6.31-7.06,8.86c-1.82,2.25-2.96,3.64-2.85,3.74c0.09,0.09,1.42-1.14,3.38-3.28c1.96-2.15,4.56-5.22,7.31-8.7
							c2.75-3.48,5.14-6.7,6.82-9.07C455.12,366.1,456.09,364.58,455.98,364.49z"/>
					</g>
				</g>
			</g>
		</g>
	</g>
	<g>
		<g>
			<g>
				<g>
					<g>
						<path class="st2" d="M387.78,284.95c-0.02,0-0.03,0.2-0.03,0.59c0.01,0.46,0.03,1.02,0.04,1.7c0.07,1.6,0.17,3.75,0.28,6.44
							c0.31,5.66,0.74,13.56,1.26,23.01l0,0.02l0.01,0.03c1.72,9.62,6.62,20.27,13.19,30.62c4.83,7.62,9.88,14.55,14.25,21
							c4.39,6.43,8.1,12.38,10.68,17.66c2.6,5.27,4.11,9.79,5,12.96c0.42,1.59,0.74,2.83,0.92,3.67c0.2,0.84,0.32,1.29,0.35,1.28
							c0.03-0.01-0.02-0.46-0.16-1.32c-0.12-0.86-0.38-2.12-0.75-3.73c-0.77-3.21-2.2-7.81-4.74-13.17
							c-2.52-5.36-6.2-11.39-10.55-17.86c-4.33-6.49-9.36-13.43-14.16-21.02c-6.54-10.3-11.42-20.79-13.2-30.25l0.01,0.05
							c-0.66-9.44-1.22-17.33-1.62-22.99c-0.22-2.68-0.39-4.84-0.52-6.43c-0.07-0.67-0.12-1.23-0.17-1.69
							C387.84,285.14,387.81,284.95,387.78,284.95z"/>
					</g>
				</g>
			</g>
		</g>
	</g>
	<g>
		<g>
			<g>
				<g>
					<path class="st12" d="M402.12,345.38c0,0-10.2-24.54,2.63-40.62c0.45-0.56,1.35-0.4,1.54,0.3
						C407.42,309.17,409.52,321.79,402.12,345.38z"/>
				</g>
			</g>
		</g>
	</g>
	<g>
		<g>
			<g>
				<g>
					<g>
						<path class="st2" d="M403.97,313.32c-0.14-0.01-0.45,1.76-0.81,4.64c-0.36,2.88-0.76,6.88-1.08,11.3
							c-0.32,4.42-0.47,8.44-0.47,11.35c0.01,2.91,0.16,4.71,0.29,4.71c0.15,0,0.24-1.79,0.42-4.69c0.22-3.26,0.47-7.08,0.76-11.3
							c0.29-4.22,0.56-8.05,0.79-11.3C404.05,315.13,404.11,313.34,403.97,313.32z"/>
					</g>
				</g>
			</g>
		</g>
	</g>
	<g class="st13">
		<g>
			<g>
				<g>
					<path d="M402.12,345.38c0,0-10.2-24.54,2.63-40.62c0.45-0.56,1.35-0.4,1.54,0.3C407.42,309.17,409.52,321.79,402.12,345.38z"/>
				</g>
			</g>
		</g>
	</g>
	<g>
		<g>
			<g>
				<g>
					<path class="st14" d="M433.7,404.52c0,0-8.17-25.29,5.91-40.27c0.49-0.53,1.38-0.29,1.51,0.42
						C441.92,368.85,442.99,381.6,433.7,404.52z"/>
				</g>
			</g>
		</g>
	</g>
	<g>
		<g>
			<g>
				<g>
					<g>
						<path class="st2" d="M438.15,372.72c-0.14-0.03-0.59,1.72-1.18,4.56c-0.59,2.84-1.32,6.79-1.99,11.17
							c-0.68,4.38-1.15,8.37-1.38,11.27c-0.23,2.9-0.23,4.71-0.1,4.72c0.15,0.01,0.39-1.77,0.8-4.64c0.48-3.23,1.05-7.02,1.67-11.2
							c0.64-4.19,1.21-7.98,1.7-11.2C438.07,374.53,438.28,372.74,438.15,372.72z"/>
					</g>
				</g>
			</g>
		</g>
	</g>
	<g>
		<g>
			<g>
				<g>
					<path class="st12" d="M389.13,315.39c0,0-21.77-15.24-19.57-35.69c0.08-0.72,0.92-1.06,1.46-0.58
						C374.18,281.98,382.72,291.5,389.13,315.39z"/>
				</g>
			</g>
		</g>
	</g>
	<g class="st13">
		<g>
			<g>
				<g>
					<path d="M389.13,315.39c0,0-21.77-15.24-19.57-35.69c0.08-0.72,0.92-1.06,1.46-0.58C374.18,281.98,382.72,291.5,389.13,315.39z
						"/>
				</g>
			</g>
		</g>
	</g>
	<g>
		<g>
			<g>
				<g>
					<g>
						<path class="st2" d="M373.5,287.34c-0.12,0.06,0.57,1.73,1.81,4.35c1.24,2.63,3.04,6.21,5.15,10.12
							c2.1,3.9,4.13,7.37,5.7,9.83c1.57,2.45,2.66,3.89,2.77,3.82c0.12-0.08-0.76-1.64-2.16-4.18c-1.56-2.86-3.4-6.23-5.43-9.94
							c-2.02-3.72-3.84-7.09-5.4-9.96C374.53,288.83,373.62,287.28,373.5,287.34z"/>
					</g>
				</g>
			</g>
		</g>
	</g>
	<g>
		<g>
			<g>
				<g>
					<path class="st12" d="M424.92,379.45c0,0-26.26-4.09-33.29-23.42c-0.25-0.68,0.36-1.36,1.06-1.16
						C396.78,356.04,408.64,360.83,424.92,379.45z"/>
				</g>
			</g>
		</g>
	</g>
	<g class="st13">
		<g>
			<g>
				<g>
					<path d="M424.92,379.45c0,0-26.26-4.09-33.29-23.42c-0.25-0.68,0.36-1.36,1.06-1.16C396.78,356.04,408.64,360.83,424.92,379.45
						z"/>
				</g>
			</g>
		</g>
	</g>
	<g>
		<g>
			<g>
				<g>
					<g>
						<path class="st2" d="M398.53,361.15c-0.08,0.11,1.27,1.3,3.54,3.11c2.27,1.81,5.47,4.24,9.08,6.81
							c3.61,2.58,6.96,4.8,9.44,6.32c2.49,1.51,4.1,2.32,4.17,2.21c0.07-0.13-1.4-1.14-3.78-2.8c-2.66-1.88-5.79-4.09-9.25-6.54
							c-3.45-2.45-6.57-4.67-9.24-6.57C400.11,362.04,398.61,361.05,398.53,361.15z"/>
					</g>
				</g>
			</g>
		</g>
	</g>
	<g>
		<g>
			<g>
				<g>
					<polygon class="st8" points="455.98,427.77 448.45,477.17 418.38,477.12 408.24,427.77 					"/>
				</g>
			</g>
		</g>
	</g>
	<g>
		<g>
			<path class="st2" d="M428.53,443.63c0.77-1.17,1.31-2.58,1.39-4.13c0.11-1.51-0.48-3.35-2.04-4.25c-1.56-0.9-3.56-0.57-5.04,0.42
				c-1.55,1-2.45,2.76-2.88,4.54c-0.43,1.8-0.48,3.68-0.37,5.58c0.12,1.9,0.47,3.85,1.22,5.71c0.73,1.86,1.9,3.62,3.49,4.97
				c1.58,1.35,3.6,2.32,5.79,2.42c2.19,0.1,4.27-0.66,6.02-1.75c1.76-1.1,3.25-2.5,4.49-4.06c1.23-1.56,2.16-3.43,2.28-5.43
				c0.1-1.96-0.59-4-2.13-5.23c-1.56-1.27-3.77-1.18-5.33-0.33c-1.6,0.81-2.8,2.34-3.08,4.03c-0.58,3.39,1.4,6.45,3.8,7.82
				c2.46,1.41,5.14,1.45,7.26,1.05c2.16-0.42,3.86-1.27,5.17-2.03c1.32-0.77,2.26-1.48,2.9-1.96c0.63-0.49,0.94-0.77,0.93-0.79
				c-0.02-0.02-0.37,0.21-1.03,0.65c-0.66,0.44-1.63,1.1-2.96,1.82c-1.32,0.7-3.01,1.49-5.1,1.85c-2.06,0.34-4.61,0.25-6.88-1.1
				c-2.21-1.29-3.99-4.18-3.43-7.19c0.26-1.48,1.31-2.8,2.73-3.51c1.4-0.74,3.25-0.78,4.53,0.27c1.29,1.03,1.92,2.84,1.82,4.6
				c-0.11,1.77-0.95,3.5-2.12,4.97c-1.18,1.48-2.63,2.83-4.29,3.86c-1.65,1.03-3.58,1.71-5.55,1.62c-1.97-0.09-3.82-0.96-5.29-2.22
				c-1.48-1.26-2.57-2.89-3.27-4.65c-0.71-1.76-1.06-3.62-1.18-5.46c-0.11-1.83-0.07-3.67,0.33-5.35c0.39-1.67,1.21-3.24,2.55-4.11
				c1.3-0.89,3.04-1.15,4.3-0.43c1.28,0.73,1.82,2.24,1.74,3.63c-0.06,1.41-0.54,2.74-1.25,3.84c-1.48,2.18-3.63,3.52-5.61,4.2
				c-2,0.7-3.87,0.79-5.34,0.64c-2.99-0.34-4.4-1.44-4.44-1.32c-0.01,0.01,0.08,0.07,0.25,0.18c0.18,0.1,0.43,0.28,0.79,0.45
				c0.72,0.35,1.84,0.79,3.36,1c1.51,0.21,3.44,0.17,5.53-0.52C424.66,447.28,426.92,445.94,428.53,443.63"/>
		</g>
	</g>
	<g class="st13">
		<g>
			<g>
				<g>
					<path d="M433.7,404.42c0,0-8.17-25.29,5.91-40.27c0.49-0.53,1.38-0.29,1.51,0.42C441.92,368.76,442.99,381.5,433.7,404.42z"/>
				</g>
			</g>
		</g>
	</g>
</g>
</svg>
