<?xml version="1.0" encoding="utf-8"?>
<!-- Generator: Adobe Illustrator 27.0.0, SVG Export Plug-In . SVG Version: 6.00 Build 0)  -->
<svg version="1.1" xmlns="http://www.w3.org/2000/svg" xmlns:xlink="http://www.w3.org/1999/xlink" x="0px" y="0px"
	 viewBox="0 0 750 500" style="enable-background:new 0 0 750 500;" xml:space="preserve">
<style type="text/css">
	.st0{fill:#FFFFFF;}
	.st1{fill:#00BFFF;}
	.st2{fill:#2D2D2D;}
	.st3{fill:#F8B6A8;}
	.st4{fill:#E56767;}
	.st5{fill:none;stroke:#2D2D2D;stroke-linejoin:round;stroke-miterlimit:10;}
	.st6{fill:#081828;}
	.st7{fill:none;stroke:#EA8F85;stroke-width:0.75;stroke-linejoin:round;stroke-miterlimit:10;}
	.st8{fill:#1D2E59;}
	.st9{fill:none;stroke:#2F5FA4;stroke-width:0.75;stroke-linejoin:round;stroke-miterlimit:10;}
	.st10{fill:none;stroke:#A74545;stroke-width:0.75;stroke-linejoin:round;stroke-miterlimit:10;}
	.st11{fill:#3E131E;}
	.st12{fill:#C96948;}
	.st13{fill:#611123;}
	.st14{fill:#4D64AE;}
	.st15{fill:#20499E;}
	.st16{fill:none;stroke:#4D64AE;stroke-width:0.75;stroke-linejoin:round;stroke-miterlimit:10;}
	.st17{fill:none;stroke:#2F2F80;stroke-width:0.75;stroke-linejoin:round;stroke-miterlimit:10;}
	.st18{fill:#2F2F80;}
	.st19{fill:#BADEF3;}
	.st20{fill:#DFD4D0;}
	.st21{fill:#414058;}
	.st22{fill:none;stroke:#171616;stroke-width:0.75;stroke-linejoin:round;stroke-miterlimit:10;}
	.st23{fill:#A35138;}
	.st24{fill:none;stroke:#77331D;stroke-width:0.75;stroke-linejoin:round;stroke-miterlimit:10;}
	.st25{fill:none;stroke:#A69691;stroke-width:0.75;stroke-linejoin:round;stroke-miterlimit:10;}
	.st26{fill:#F69655;}
	.st27{fill:none;stroke:#609CD4;stroke-width:0.75;stroke-linejoin:round;stroke-miterlimit:10;}
	.st28{fill:#609CD4;}
	.st29{fill:none;stroke:#AE3725;stroke-width:0.75;stroke-linejoin:round;stroke-miterlimit:10;}
</style>
<g id="BACKGROUND">
	<rect class="st0" width="750" height="500"/>
</g>
<g id="OBJECTS">
	<path class="st1" d="M277.52-19.2c-43.01,50.6-79.41,105-129.49,149.99c-6.77,6.08-13.7,12.06-20.55,18.12
		c-17.45,15.44-34.39,31.4-46.87,50.95c-25.73,40.31-28.97,93.49-10.3,137.51c18.67,44.02,58.17,78.18,103.81,92.44
		c69.25,21.63,143.78-1.01,216.32-0.36c53.56,0.48,107.44,13.76,160.19,4.48c69.89-12.3,127.82-62.42,196.63-79.78
		c40.03-10.1,87.18-11.19,113.38-43.09c12.34-15.03,18.65-33.29,21.68-52.81c0.36-2.35,0.54-4.72,0.54-7.09v-96.86
		c0-60.03,0-120.06,0-180.09v0c0-25.98-21.06-47.03-47.03-47.03H602.49c-60.91,0-121.81,0-182.72,0h-15.12
		c-21.57,0-42.94,4.07-63.01,11.97c-0.11,0.04-0.22,0.09-0.33,0.13C317.52-51.42,294.3-38.94,277.52-19.2z"/>
	<g>
		<g>
			<polygon class="st2" points="603.36,554.14 567.54,554.14 567.77,549.76 603.59,549.76 			"/>
			<polyline class="st3" points="599.64,506.05 600.51,536.14 598.81,549.76 574.19,534.9 572.64,502.59 			"/>
			<path class="st4" d="M574.19,534.9c0,0-3.59,8.64-5.15,11.04c-1.57,2.41-1.31,4.72-1.31,4.72s33.91,0,35.81,0
				c0.63-3.65-2.96-15.76-2.96-15.76S580.9,536.17,574.19,534.9z"/>
			<line class="st5" x1="582.99" y1="537.82" x2="591.52" y2="537.82"/>
			<line class="st5" x1="582.64" y1="540.72" x2="591.76" y2="540.72"/>
			<line class="st5" x1="582.31" y1="543.61" x2="592.07" y2="543.61"/>
		</g>
		<g>
			<path class="st6" d="M528.58,183.2c0.84,4.85,1.58,9.63,6.13,12.66c2.41,1.6,5.3,2.36,8.19,2.62c2.38,0.21,4.81,0.1,7.11-0.57
				c2.26-0.66,4.34-1.82,6.39-2.98c1.47-0.83,3.05-1.79,3.58-3.39c0.26-0.78,0.23-1.62,0.42-2.42c0.31-1.33,1.16-2.45,1.98-3.53
				c1.63-2.16,3.25-4.55,3.34-7.26c0.04-1.11-0.19-2.21-0.54-3.26c-1.08-3.21-3.32-5.93-5.94-8.08c-2.62-2.15-5.62-3.77-8.62-5.35
				c-1.38-0.72-2.79-1.45-4.33-1.72c-1.5-0.27-3.04-0.09-4.54,0.16c-3.9,0.63-7.82,1.75-10.98,4.11c-1.73,1.29-3.22,2.98-3.91,5.03
				c-0.95,2.8-0.3,5.88,0.57,8.71C527.95,179.63,528.27,181.42,528.58,183.2z"/>
		</g>
		<g>
			<path class="st2" d="M542.92,553.24v-2.58h-47.69c-1.63,0-3.14-0.86-3.97-2.25l-0.29-0.05v4.15c0,0.15,0.06,0.3,0.16,0.42
				l0.1,0.11c0.67,0.72,1.61,1.13,2.6,1.13h48.18C542.51,554.14,542.92,553.74,542.92,553.24z"/>
			<path class="st3" d="M544.46,500.97l-3.06,35.05l-0.8,13.74h-46.41c-1.07,0-1.94-0.87-1.94-1.94l0,0c0-0.8,0.5-1.53,1.25-1.81
				l21.3-9.98l-1.95-38.51"/>
			<path class="st4" d="M514.84,533.71l-22.49,12.24c-0.83,0.36-1.38,1.27-1.38,2.28l0,0c0,1.35,1.39,2.44,2.57,2.44h49.38
				l-1.48-14.96C541.44,535.7,523.89,538.8,514.84,533.71z"/>
			<line class="st5" x1="501.91" y1="540.74" x2="504.51" y2="545.13"/>
			<line class="st5" x1="504.51" y1="539.33" x2="507.29" y2="543.95"/>
			<line class="st5" x1="507.29" y1="537.82" x2="510.08" y2="542.35"/>
		</g>
		<path class="st3" d="M479.11,231.41l20.12,19.89l55.61,40.79l-10.05,12.73c0,0-35.37-14.36-61.81-30.84
			c-9.58-5.97-28.71-26.57-28.71-26.57"/>
		<g>
			<path class="st3" d="M549.25,289.56c3.26,1.57,9.42,4.14,12.68,5.71c1.92,0.93,5.21,2.76,5.04,3.7
				c-0.41,2.41-5.43-1.59-5.64-0.37c-0.13,0.74,4.07,2.61,6.23,3.58c1.92,0.86,4.41,2.3,4.25,3.61c-0.2,1.69-10.94-3.23-10.94-3.23
				s11.1,5.66,10.86,7.07c-0.35,2.03-11.53-3.63-11.53-3.63s9.39,4.99,9.13,6.5c-0.26,1.51-7.09-2.8-10.09-3.89
				c1.98,1.28,7.69,5.16,6.92,5.95c-0.68,0.71-4.77-1.42-5.82-1.84c-9.93-4.02-16.56-8.3-16.56-8.3"/>
		</g>
		<path class="st7" d="M549.02,295.01c0,0,4.14,3.9,8.42,3.14"/>
		<g>
			<path class="st3" d="M494.77,236.35c0,0-19.93,24.69-26.59,31.74c-5.39,5.7-36.36,12.22-36.36,12.22l-1.06,15.69
				c8.28-0.04,45.43-0.5,61.52-16.59c13.25-13.25,29.48-33.65,29.48-33.65"/>
			<g>
				<path class="st3" d="M439.93,279.42c-4,0.13-9.49,0.59-13.49,0.66c-1.94,0.03-5.95,0.05-6.36,0.86c-0.79,1.55,5,1.31,4.61,2.42
					c-0.24,0.68-4.55,0.49-6.69,0.25c-1.91-0.21-4.29-0.47-4.86,0.66c-0.5,0.98,10.69,2.41,10.69,2.41s-11.93-0.48-12.39,0.81
					c-0.66,1.86,12.28,2.32,12.28,2.32s-11.22-0.16-11.71,1.22s8.32,1.51,11.79,1.86c-2.15,0.11-9.99-0.02-10.34,0.98
					c-0.36,1,3.69,1.81,4.72,1.89c6.18,0.48,18.54,0.16,18.54,0.16"/>
			</g>
			<path class="st7" d="M426.26,292.28c0,0,4.4-5.61,10.03-5.34"/>
			<line class="st7" x1="471.38" y1="264.53" x2="489.04" y2="243.4"/>
			<line class="st7" x1="492.54" y1="279.42" x2="510.7" y2="260.13"/>
		</g>
		<g>
			<path class="st8" d="M508.87,315.31c-1.48,2.02,0.15,213.82,0.15,213.82h36.82l12.02-159.48c0,0,3.87-35.25-5.6-66.01"/>
			<path class="st8" d="M594.39,315.31c3.18,4.33,12.54,213.82,12.54,213.82h-36.82l-20.16-159.48c0,0-3.87-35.25,5.6-66.01"/>
			<path class="st9" d="M554.83,408.24c0,0-5.81-62.33-5.81-80.03"/>
			<path class="st9" d="M541.99,328.21c0,0,0.98,24.06,2.25,29.83c0.56,2.54,6.14,2.02,6.14,2.02"/>
			<path class="st9" d="M602.99,529.13c0,0-9.7-184.52-15.65-202.94"/>
			<path class="st9" d="M571.93,331.34c0,0,3.52,9.36,6.23,12.06c2.7,2.7,11.75,1.87,11.75,1.87"/>
			<line class="st9" x1="542.92" y1="529.13" x2="553.4" y2="392.29"/>
			<path class="st9" d="M508.34,342.53c0,0,7.57,0.68,9.57-0.99c2.74-2.29,7.6-8.29,7.6-8.29"/>
		</g>
		<g>
			<path class="st4" d="M544.24,207.31c0,0-11.56-6.19-29.82,4.36c-9.16,5.3-21.16,18.78-29.82,33.82
				c3.52,5.9,25.6,22.89,33.94,22.05c6.61-8.44,13.74-34,13.74-34"/>
		</g>
		<g>
			<path class="st4" d="M510.2,229.36l-4.47,103.88l95.34-1.91c-0.79-22.8-8.6-79.47-13.73-105.03
				c-18.37-23.22-40.95-23.41-40.95-23.41l-17.59,10.84L510.2,229.36z"/>
			<path class="st10" d="M508.99,262.82c0,0,1.2-22.06,1.2-33.46"/>
		</g>
		<path class="st3" d="M593.48,213.46c0,0,23.21,15.49,37.91,10.11c10.81-3.96,32.81-37.02,32.81-37.02l17.1,7.28
			c-4.47,8.7-25.99,58.23-52.81,60.11c-22.4,1.56-48.4-11.54-48.4-11.54"/>
		<g>
			<path class="st3" d="M658.91,194.61c2.28-4.14,5.7-9.69,7.9-13.86c1.07-2.03,3.23-6.25,4.3-6.25c2.05,0-1.3,5.97,0.09,6.15
				c0.84,0.11,2.95-4.54,3.84-6.92c0.8-2.12,1.79-4.77,3.29-4.77c1.3,0-3.18,12.56-3.18,12.56s5.88-12.83,7.48-12.62
				c2.31,0.3-4.12,14.18-4.12,14.18s5.83-11.91,7.54-11.68c1.71,0.22-2.86,9.58-4.34,13.42c1.26-2.2,5.32-10.53,6.57-10.37
				c1.25,0.16-0.07,4.86-0.53,5.98c-2.79,6.77-9.74,19.63-9.74,19.63"/>
		</g>
		<path class="st7" d="M679.78,187.07c0,0-8.26,1.63-10.98,7.72"/>
		<path class="st4" d="M551.69,204.97c0,0,20.79-3.05,41.88,7.21c15.9,7.73,18.52,9.53,18.52,9.53l-12.28,30.15l-34.4-15.05"/>
		<g>
			<g>
				<path class="st3" d="M533.4,179.77c-0.84-0.84-2.31-0.76-3.18,0.02c-0.97,0.87-1.15,2.64-0.91,3.86
					c0.39,1.97,2.18,4.08,4.39,3.42c0.82-0.24,1.5-0.9,1.77-1.7"/>
			</g>
			<g>
				<path class="st3" d="M558.17,180.37c0.08-0.09,0.17-0.17,0.26-0.25c0.77-0.63,2.01-0.35,2.66,0.41
					c0.64,0.76,0.78,1.84,0.65,2.82c-0.14,1.08-0.58,2.16-1.37,2.91c-0.8,0.75-1.98,1.13-3.03,0.81c-0.82-0.24-1.5-0.9-1.77-1.7"/>
			</g>
			<path class="st3" d="M536.96,192.87l11.26-15.3l5.94,13.88l1,14.55c-3.88,8.33-16.05,6.44-18.05,1.55L536.96,192.87"/>
			<path class="st3" d="M533.56,170c-2.19,5.65-1.38,25.78,3.06,28.39c4.44,2.61,14.19,1.97,17.34-1.25
				c2.73-2.8,7.03-19.7,3.18-24.19C553.3,168.46,536.64,162.09,533.56,170z"/>
			<g>
				<path class="st6" d="M556.25,159.66c-1.24-2.67-3.9-4.59-6.81-5.11c-2.93-0.52-6.03,0.32-8.44,2.07
					c-1.42,1.04-2.65,2.41-4.29,3.06c-1.88,0.75-3.99,0.44-6.02,0.42c-2.03-0.02-4.31,0.39-5.46,2.06c-0.79,1.13-0.87,2.61-0.8,3.98
					c0.11,2.05,0.53,4.12,1.6,5.87c1.07,1.75,2.87,3.13,4.91,3.33c2.63,0.26,5.01-1.38,7.41-2.49c2.34-1.08,4.84-1.76,7.18-2.85
					c2.24-1.05,4.37-1.11,6.56,0.22c1.98,1.2,3.46,3.06,5.06,4.73c1.05,1.09,2.23,2.14,3.7,2.5c1.46,0.36,3.26-0.23,3.81-1.63
					c0.37-0.95,0.12-2.01-0.14-2.99c-0.36-1.4-0.73-2.79-1.09-4.19c-0.35-1.34-0.71-2.7-1.45-3.87c-0.59-0.95-1.39-1.64-2.31-2.24
					c-0.8-0.53-1.95-0.71-2.62-1.4c-0.37-0.38-0.55-0.9-0.77-1.39C556.27,159.71,556.26,159.68,556.25,159.66z"/>
			</g>
			<path class="st7" d="M539.47,199.81c0,0,9.06,1.3,13.16-1.87"/>
			<path class="st7" d="M543.66,181.07c0,0-2.43,5.89-1.48,7.34c0.95,1.45,3.48,0.59,3.48,0.59"/>
			<g>
				<path class="st11" d="M548.98,181.01c-0.16,0.36-0.17,0.86-0.22,1.16c-0.08,0.53,0.47,0.87,0.97,0.76
					c0.93-0.21,0.95-2.38-0.18-2.34C549.26,180.6,549.09,180.77,548.98,181.01z"/>
			</g>
			<g>
				<path class="st11" d="M536.22,180.48c-0.16,0.36-0.17,0.86-0.22,1.16c-0.08,0.53,0.47,0.87,0.97,0.76
					c0.93-0.21,0.95-2.38-0.18-2.34C536.5,180.06,536.33,180.24,536.22,180.48z"/>
			</g>
			<path class="st0" d="M539.76,191.61l8-0.2c0,0,0.77,4.68-4.03,4.57C539.39,195.87,539.76,191.61,539.76,191.61z"/>
			<g>
				<path class="st11" d="M547.98,178.11c1.49,0.15,3.06,0.63,4.33,1.31c0.16-0.07,0.61-0.74,0.42-1.18
					c-0.15-0.35-2.42-1.36-4.54-1.5C548.19,176.74,547.71,177.89,547.98,178.11z"/>
			</g>
			<g>
				<path class="st11" d="M538.37,177.79c-1.08-0.08-2.2,0.15-3.09,0.62c-0.12-0.09-0.33-0.7-0.21-1.09
					c0.09-0.31,1.69-0.95,3.23-0.76C538.29,176.55,538.56,177.62,538.37,177.79z"/>
			</g>
		</g>
		<line class="st10" x1="591.29" y1="248.73" x2="571.93" y2="239.67"/>
		<path class="st12" d="M356.1,228.41c0,0,13.78,13.67,19.09,13.11c8.81-0.94,58.32-30.99,58.32-30.99l5.56,20.31
			c0,0-37.1,40.17-59.18,42.68c-19.08,2.17-44.8-20.7-44.8-20.7"/>
		<g>
			<g>
				<path class="st13" d="M443.03,168.37c2.1,0.91,3.48,3.03,4.03,5.26s0.39,4.55,0.17,6.83c-0.06,0.66-0.13,1.32-0.01,1.97
					c0.55,3.03,4.6,4.17,5.69,7.05c0.31,0.83,0.35,1.73,0.38,2.62c0.06,1.64,0.18,4.93,0.18,4.93s-14.48,1.16-23.03,0.93"/>
			</g>
			<g>
				<polygon class="st2" points="380.3,554.14 416.12,554.14 415.89,549.76 380.07,549.76 				"/>
				<polyline class="st3" points="384.02,506.05 383.16,536.14 384.86,549.76 408.24,534.9 411.02,502.59 				"/>
				<path class="st14" d="M408.24,534.9c0,0,4.82,8.64,6.38,11.04c1.57,2.41,1.31,4.72,1.31,4.72s-33.91,0-35.81,0
					c-0.63-3.65,2.96-15.76,2.96-15.76S401.54,536.17,408.24,534.9z"/>
				<line class="st5" x1="400.67" y1="537.82" x2="392.14" y2="537.82"/>
				<line class="st5" x1="401.03" y1="540.72" x2="391.91" y2="540.72"/>
				<line class="st5" x1="401.35" y1="543.61" x2="391.59" y2="543.61"/>
			</g>
			<g>
				<path class="st2" d="M434.2,553.24l-0.14-2.58h47.69c1.63,0,3.09-0.86,3.86-2.25l0.28-0.05l0.22,4.15
					c0.01,0.15-0.04,0.3-0.14,0.42l-0.09,0.11c-0.64,0.72-1.56,1.13-2.54,1.13h-48.18C434.66,554.14,434.23,553.74,434.2,553.24z"/>
				<path class="st3" d="M435.78,506.05l0.1,29.86l0.46,13.85h46.41c1.07,0,1.9-0.87,1.84-1.94l0,0c-0.04-0.8-0.58-1.53-1.34-1.81
					l-21.82-9.98l4.94-33.43"/>
				<path class="st14" d="M461.66,534.09l22.73,11.85c0.85,0.36,1.44,1.27,1.5,2.28l0,0c0.07,1.35-1.26,2.44-2.45,2.44h-49.38
					l1.5-15.07C435.57,535.59,452.88,539.18,461.66,534.09z"/>
				<line class="st5" x1="474.37" y1="540.72" x2="471.43" y2="546.28"/>
				<line class="st5" x1="470.64" y1="538.78" x2="467.7" y2="544.34"/>
				<line class="st5" x1="466.92" y1="536.85" x2="463.98" y2="542.4"/>
			</g>
			<g>
				<path class="st14" d="M431.67,203.93c0,0,21.95,2.84,31.61,10.52c9.72,7.72,24.19,23.3,24.19,23.3l-19.91,25.08l-17.98-19.43"/>
			</g>
			<g>
				<path class="st15" d="M451.56,281.52l9.15,8.41c1.82,5.94,15.17,20.23,18.12,65.43c3.26,49.99-3.07,154.73-3.07,154.73H432.8
					l-2.27-177.84l-1.69-64.71"/>
				<path class="st15" d="M400.27,286.23c-3.07,8.26-14.36,25.68-19.23,49.58c-7.54,37.01-1.01,174.27-1.01,174.27h36.45
					l21.3-178.59c0,0,1.93-15.83,1.01-42.21"/>
				<g>
					<path class="st16" d="M432.18,388.81c0.87-17.72,5.82-75.12,6.6-99.53"/>
					<path class="st16" d="M411.47,286.23c0,0-15.9,19.28-20.44,47.25c-3.82,23.53-2.87,176.61-2.87,176.61"/>
					<path class="st16" d="M425.21,289.28c0,0-3.79,14.12-25.29,16.04"/>
					<path class="st16" d="M467.68,303.96c0,0-15.43-8.32-18.49-14.68"/>
					<path class="st16" d="M445,291.46c0,0-0.72,22.54-2.59,24.48c-1.87,1.94-5.84,2.41-5.84,2.41"/>
					<path class="st16" d="M440.48,509.89c0,0-3.76-133.4-5.72-159.03"/>
				</g>
			</g>
			<g>
				<g>
					<g>
						<path class="st14" d="M391.23,224.32c4.17-6.55,26.6-19.72,26.6-19.72c7.57-0.95,16.27-0.42,16.27-0.42
							s12.68,10.27,21.39,22.14c7.15,6.91,10.04,12.19,10.15,19.34c0.07,4.88-2.19,9.05-3.35,16.47
							c-1.26,8.04-1.58,27.82-1.58,27.82c-13.68,5.04-41.46,4.49-61.75-0.65C396.37,270.58,387.06,230.87,391.23,224.32z"/>
						<path class="st17" d="M455.49,226.31c7.15,6.91,10.04,12.19,10.15,19.34c0.07,4.88-1.51,7.46-2.52,12.23"/>
					</g>
				</g>
				<path class="st17" d="M433.09,244.53l-3.14-34.74L433.09,244.53z"/>
				<path class="st18" d="M427.2,220.02c0.01,0.36,0.32,0.65,0.68,0.65s0.64-0.29,0.63-0.65c-0.01-0.36-0.32-0.65-0.68-0.65
					C427.47,219.36,427.18,219.65,427.2,220.02z"/>
				<path class="st18" d="M428.25,231.38c0.01,0.36,0.32,0.65,0.68,0.65c0.36,0,0.64-0.29,0.63-0.65s-0.32-0.65-0.68-0.65
					C428.52,230.72,428.24,231.02,428.25,231.38z"/>
				<path class="st18" d="M429.3,242.74c0.01,0.36,0.32,0.65,0.68,0.65c0.36,0,0.64-0.29,0.63-0.65c-0.01-0.36-0.32-0.65-0.68-0.65
					C429.57,242.09,429.29,242.38,429.3,242.74z"/>
			</g>
			<g>
				<path class="st3" d="M379.17,229.48c0,0-25.94,22.76-31.21,26.72c-5.13,3.86-49.72,26.31-49.72,26.31l3.9,12.91
					c0,0,50.22-11.66,65.47-20.64c12.36-7.28,36.02-28.12,36.02-28.12"/>
				<path class="st14" d="M417.12,204.88c0,0-11.59,1.55-24.29,9.12c-9.2,5.48-25.22,24.19-25.22,24.19l23.62,23.59l23.96-21.39"/>
				<line class="st17" x1="394.59" y1="258.78" x2="408.96" y2="245.95"/>
				<g>
					<path class="st3" d="M305.02,279.04c-3.38,1.02-9.75,2.53-13.13,3.55c-2,0.6-5.43,1.87-5.36,2.83
						c0.18,2.46,5.54-0.67,5.63,0.58c0.05,0.76-4.3,1.91-6.52,2.51c-1.99,0.54-4.6,1.54-4.57,2.88c0.03,1.71,11.17-1.38,11.17-1.38
						s-11.56,3.76-11.46,5.2c0.15,2.08,11.79-1.68,11.79-1.68s-9.8,3.38-9.69,4.92c0.11,1.54,7.24-1.13,10.33-1.71
						c-2.08,0.94-7.73,2.81-7.65,3.93c0.08,1.12,4.47,0.4,5.51,0.01c10.2-3.81,17.81-7.61,17.81-7.61"/>
				</g>
				<path class="st7" d="M304.71,284.48c0,0-4.48,3.17-8.66,1.71"/>
			</g>
			<g>
				<g>
					<path class="st3" d="M432.96,192.85l1.25,12.12c0,0,2.38,4.77-6.71,5.04c-7.02,0.2-9.67-5.4-9.67-5.4l3.31-18.74"/>
					<path id="XMLID_39_" class="st3" d="M442.84,166.01c2.47,7.78,5.47,23.81-3.4,28.51c-2.04,1.08-5.15,0.79-8.33-0.61
						c-6.88-3.04-11.3-8.59-12.52-13.44C417.05,174.36,432.92,152.65,442.84,166.01z"/>
					<g>
						<path class="st13" d="M407.69,168.78c-1.17,0.85-2.65,1.41-3.63,2.51c-2.02,2.27-2.43,5.91-1.01,8.59
							c0.52,0.98,1.27,1.92,1.23,3.02c-0.06,1.43-1.32,2.49-2.46,3.35c-5.08,3.8-2.93,11.41-2.93,11.41s14.49,0.66,23.11,0.05
							c0.09-4.86-1.11-10.31,0.29-14.97c1.4-4.66,4.04-9.09,8.06-11.82c1.93-1.31,4.37-2.5,4.86-4.78c3.7,1.62,7.12,3.87,10.08,6.63
							c1.62-3.01,1.7-6.86-0.02-9.81c-0.94-1.61-3.68-4.12-6.27-4.54c-5.28-5.28-16.61-4.85-23.19-0.48
							C410.79,161.26,410.9,166.44,407.69,168.78z"/>
					</g>
					<path id="XMLID_38_" class="st7" d="M438.01,178.06c0,0,3.21,5.08,2.58,6.19c-0.62,1.11-3.28,0.54-3.28,0.54"/>
					<g id="XMLID_36_">
						<path id="XMLID_37_" class="st6" d="M431.13,178.09c-0.04,0.07-0.09,0.14-0.12,0.22c-0.26,0.54-0.18,1.05-0.18,1.64
							c0.01,0.93,1.56,0.85,1.46-0.1c-0.07-0.59-0.16-1.21-0.4-1.76C431.64,177.55,431.34,177.77,431.13,178.09z"/>
					</g>
					<g id="XMLID_34_">
						<path id="XMLID_35_" class="st6" d="M441.72,176.86c-0.03,0.08-0.05,0.16-0.07,0.24c-0.14,0.58,0.03,1.08,0.15,1.65
							c0.19,0.91,1.69,0.54,1.4-0.38c-0.18-0.57-0.39-1.17-0.73-1.66C442.11,176.22,441.86,176.5,441.72,176.86z"/>
					</g>
					<path id="XMLID_33_" class="st6" d="M426.36,177.41c0,0-0.05-0.44,0.18-1.1c0.22-0.63,0.77-1.38,1.53-1.87
						c0.77-0.48,1.73-0.67,2.43-0.51c0.35,0.06,0.62,0.23,0.79,0.33c0.17,0.13,0.24,0.21,0.24,0.21s-0.12,0.02-0.3,0.02
						c-0.18,0.01-0.43,0.08-0.69,0.16c-0.53,0.17-1.17,0.48-1.77,0.86c-0.6,0.38-1.18,0.83-1.63,1.21c-0.2,0.19-0.43,0.34-0.55,0.49
						C426.46,177.34,426.36,177.41,426.36,177.41z"/>
					<path id="XMLID_32_" class="st6" d="M439.38,174.25c0,0,0.03-0.09,0.09-0.22c0.06-0.11,0.21-0.33,0.42-0.47
						c0.42-0.33,1.19-0.46,1.87-0.28c0.69,0.18,1.27,0.64,1.54,1.09c0.28,0.46,0.29,0.82,0.29,0.82s-0.09-0.03-0.22-0.08
						c-0.12-0.06-0.32-0.11-0.52-0.19c-0.41-0.14-0.89-0.3-1.37-0.42c-0.47-0.13-0.94-0.23-1.34-0.25
						C439.76,174.19,439.38,174.26,439.38,174.25z"/>
					<path class="st7" d="M424.73,190.04c0,0,2.2,3.44,8.47,5.13"/>
					<g id="XMLID_30_">
						<path class="st3" d="M424.25,181.65c-0.72-3.01-3.79-2.54-4.6-1.94c-0.59,0.43-0.81,1.21-0.88,1.94
							c-0.16,1.85,0.53,3.78,1.84,5.15c0.47,0.49,1.02,0.92,1.67,1.11c1.81,0.55,2.96-0.81,2.95-2.36"/>
					</g>
				</g>
				<path class="st0" d="M440.9,187.06h-8.71c0,0,0.86,4.57,5.06,4.57C440.99,191.62,440.9,187.06,440.9,187.06z"/>
				<polygon class="st0" points="418.35,201.69 429.94,209.79 425.7,217.59 415.69,205.39 				"/>
				<polygon class="st0" points="433.97,202.03 429.94,209.79 433.58,216.82 437.15,204.57 				"/>
			</g>
			<polygon class="st19" points="416.12,515.82 378.82,515.82 378.82,506.36 417.47,506.36 			"/>
			<polygon class="st19" points="476.01,515.82 431.99,515.82 431.99,506.36 476.41,506.36 			"/>
			<g>
				<path class="st12" d="M444.77,206.49c1.62,3.01,9.12,7.78,10.23,7.5c1.12-0.28-1.41-3.45-1.63-4.18
					c2.5,0.67,4.62,1.65,6.14,2.59c1.91,1.18,4.01,2.5,5.86,3.76c-0.91-2.28-3.52-5.77-4.63-6.62
					C456.45,206.24,450.12,204.72,444.77,206.49"/>
			</g>
		</g>
		<g>
			<path class="st20" d="M305.89,200.48c0,0,19.27-5.08,36.06,8.73c13.94,11.46,23.79,25.82,23.79,25.82l-25.4,21.57l-26.87-22.35"
				/>
		</g>
		<g>
			<path class="st2" d="M292.43,553.24v-2.58h-47.69c-1.63,0-3.14-0.86-3.97-2.25l-0.29-0.05v4.15c0,0.15,0.06,0.3,0.16,0.42
				l0.1,0.11c0.67,0.72,1.61,1.13,2.6,1.13h48.18C292.03,554.14,292.43,553.74,292.43,553.24z"/>
			<path class="st12" d="M293.46,500.97l-3.62,34.94l0.27,13.85H243.7c-1.07,0-1.94-0.87-1.94-1.94l0,0c0-0.8,0.5-1.53,1.25-1.81
				l21.3-9.98l-1.61-38.51"/>
			<path class="st21" d="M263.97,534.09l-22.11,11.85c-0.83,0.36-1.38,1.27-1.38,2.28l0,0c0,1.35,1.39,2.44,2.57,2.44h49.38
				l-2.29-15.07C290.14,535.59,273.02,539.18,263.97,534.09z"/>
			<line class="st5" x1="251.24" y1="540.92" x2="254.02" y2="545.13"/>
			<line class="st5" x1="254.02" y1="539.42" x2="256.81" y2="543.95"/>
			<line class="st5" x1="256.81" y1="537.82" x2="259.59" y2="542.35"/>
		</g>
		<g>
			<path class="st2" d="M329.62,553.24v-2.58h47.69c1.63,0,3.14-0.86,3.97-2.25l0.29-0.05v4.15c0,0.15-0.06,0.3-0.16,0.42l-0.1,0.11
				c-0.67,0.72-1.61,1.13-2.6,1.13h-48.18C330.02,554.14,329.62,553.74,329.62,553.24z"/>
			<path class="st12" d="M324.82,500.97l4.88,34.94l2.24,13.85h46.41c1.07,0,1.94-0.87,1.94-1.94l0,0c0-0.8-0.5-1.53-1.25-1.81
				l-23.81-9.98l0.35-38.51"/>
			<path class="st21" d="M355.57,534.09l24.62,11.85c0.83,0.36,1.38,1.27,1.38,2.28l0,0c0,1.35-1.39,2.44-2.57,2.44h-49.38
				l-0.22-15.07C329.4,535.59,346.52,539.18,355.57,534.09z"/>
			<line class="st5" x1="369.14" y1="540.62" x2="366.06" y2="545.13"/>
			<line class="st5" x1="366.25" y1="539.23" x2="363.28" y2="543.95"/>
			<line class="st5" x1="363.28" y1="537.82" x2="360.49" y2="542.35"/>
		</g>
		<g>
			<g>
				<path class="st21" d="M293.94,302.35c0,0-0.14,27.12,3.36,51.65c3.5,24.53,19.58,177.17,19.58,177.17h43.84
					c0,0-3.6-116.18-8.53-175.37c-1.07-12.79-4.08-38.54-15.14-54.21"/>
				<path class="st22" d="M354.45,531.16c0,0-3.6-116.18-8.53-175.37c-1.07-12.79-4.08-38.54-15.14-54.21"/>
				<path class="st21" d="M256.98,308.8c-4.44,56.6,2.69,222.36,2.69,222.36h40.85l10.43-170.51c0,0,9.23-37.86,0.28-56.38"/>
			</g>
			<path class="st22" d="M306.55,432.56c0,0-7.5-86.73-10.68-121.49"/>
			<line class="st22" x1="294.34" y1="531.16" x2="303.88" y2="401.76"/>
			<path class="st22" d="M322.92,324.47c0,0-0.42,10.23,20.51,13.55"/>
			<path class="st22" d="M255.76,338.03c0,0,19.2-0.31,21.4-13.55"/>
			<line class="st22" x1="259.41" y1="524.49" x2="300.78" y2="524.49"/>
			<line class="st22" x1="316" y1="524.49" x2="360.25" y2="524.49"/>
		</g>
		<path class="st12" d="M243.23,226.81c0,0-13.78,13.68-19.09,13.11c-8.81-0.94-58.32-37.26-58.32-37.26l-9.33,9.02
			c0,0,40.86,55.23,62.94,57.74c19.08,2.17,44.8-20.7,44.8-20.7"/>
		<g>
			<path class="st20" d="M293.43,200.48c0,0-18.21-3.67-36.06,8.73c-15.59,10.83-24.53,21.7-24.53,21.7l24.15,27.35l28.86-24.01"/>
		</g>
		<g>
			<path class="st3" d="M233.83,228.77c0,0,19.36,20.87,28.62,23.78c7.48,2.35,37.7-7.05,37.7-7.05l8.57,13.18
				c-7.25,4-43.16,24.94-62.88,13.59c-16.47-9.48-31.45-23.2-31.45-23.2"/>
			<g>
				<path class="st3" d="M292.64,248.66c3.55-1.83,8.58-4.11,12.1-6c1.71-0.92,5.22-2.86,5.97-2.35c1.44,0.97-3.73,3.58-2.84,4.36
					c0.54,0.47,4.21-1.8,5.96-3.05c1.56-1.11,3.51-2.51,4.57-1.8c0.91,0.61-8.16,7.32-8.16,7.32s10.19-6.24,11.21-5.33
					c1.48,1.3-9.59,8.01-9.59,8.01s9.72-5.61,10.81-4.64c1.1,0.96-6.53,5.38-9.39,7.38c1.93-0.95,8.71-4.89,9.51-4.18
					c0.8,0.7-2.34,3.38-3.2,3.95c-5.16,3.43-16.11,9.18-16.11,9.18"/>
			</g>
			<path class="st7" d="M310.85,253.23c0,0-6.57-2.75-11.36,0.23"/>
		</g>
		<g>
			<path class="st20" d="M293.2,201.04c0,0-25.33,1.99-33.7,46.74c-3.54,18.94-4.6,76.76-4.6,76.76s48.17,3.14,94.15-0.07
				c0-19.39-5.4-67.96-10.85-91.97c-3.7-16.28-19.02-24.56-31.58-32.1"/>
		</g>
		<g>
			<path class="st6" d="M288.65,163.62c-2.23,3.19-3.49,7.05-3.57,10.95c-0.06,2.94,0.75,6.22,3.26,7.75
				c0.97,0.59,2.27,0.84,3.21,0.2c0.75-0.52,1.06-1.45,1.29-2.33c0.65-2.43,1.04-4.92,1.18-7.43c0.09-1.56,0.07-3.14-0.33-4.65
				s-1.25-2.94-2.53-3.82"/>
		</g>
		<path class="st12" d="M291.62,190.12l-0.22,10.92c0,0,0.9,3.94,8.34,4.14c9.43,0.26,11.31-4.77,11.31-4.77l-1.78-20.27"/>
		<g>
			<path class="st23" d="M290.51,178.17c-0.12-0.57-0.86-0.78-1.42-0.62c-0.79,0.22-1.39,0.93-1.65,1.72
				c-0.27,0.78-0.25,1.63-0.16,2.45c0.09,0.76,0.24,1.55,0.69,2.17c0.79,1.11,2.49,1.45,3.64,0.71"/>
		</g>
		<path class="st12" d="M289.7,167.31c0,0-2.19,18.71,0.93,22.04c4.67,4.99,12.64,3.66,16.19,0.55c2.97-2.61,5.4-14.02,4.98-17
			C310.65,164.79,293.37,162.44,289.7,167.31z"/>
		<g>
			<path class="st6" d="M314.63,164.08c-1-1.79-1.09-4.13-2.23-5.86c-0.96-1.47-2.58-2.33-4.23-2.61c-1.72-0.3-3.56-0.05-5.17-0.76
				c-1.03-0.45-1.88-1.26-2.87-1.79c-2.69-1.44-6.32-0.4-7.99,2.28c-0.28,0.44-0.51,0.93-0.87,1.29c-0.82,0.82-2.06,0.84-3.16,1.09
				c-1.34,0.3-3.27,1.16-3.84,2.6c-0.57,1.44-0.58,3.47,0.07,4.86c1.12,2.43,3.16,2.49,5.28,3.07c3.74,1.01,7.22-0.43,10.97-0.58
				c1.6-0.06,4.17,0.1,5.24,1.41c1.62,2.01,2.16,4.63,2.46,7.17c0.33,2.81-0.99,7.78,1.04,10.01c1.24-0.91,5.37-2.22,5.88-3.84
				c0.46-1.49-0.04-3.16,0.41-4.65c0.39-1.31,1.45-2.25,2.13-3.42c1.35-2.31,1.06-5.57-0.67-7.57c-0.65-0.75-1.47-1.32-2.06-2.11
				C314.87,164.48,314.74,164.29,314.63,164.08z"/>
		</g>
		<path class="st24" d="M291.62,190.57c4.87,2.94,10.07,2.12,12.38,1.22c4.32-1.68,4.75-5.88,4.75-5.88"/>
		<path class="st24" d="M296.82,175.4c0,0-0.61,4.92-0.17,5.85c0.44,0.93,3.12,0.22,3.12,0.22"/>
		<path class="st6" d="M301.48,176.74c-0.04,0.47,0.22,0.88,0.58,0.91c0.36,0.03,0.68-0.33,0.72-0.81c0.04-0.47-0.22-0.88-0.58-0.91
			C301.84,175.9,301.52,176.26,301.48,176.74z"/>
		<path class="st6" d="M291.4,175.87c-0.04,0.47,0.22,0.88,0.58,0.91c0.36,0.03,0.68-0.33,0.72-0.81c0.04-0.47-0.22-0.88-0.58-0.91
			C291.76,175.03,291.44,175.39,291.4,175.87z"/>
		<g>
			<path class="st6" d="M305.3,172.84c-0.13-0.22-0.26-0.43-0.4-0.65c-0.05-0.08-0.11-0.16-0.19-0.21c-0.1-0.06-0.22-0.06-0.33-0.06
				c-0.9,0.01-1.8,0.12-2.67,0.32c-0.4,0.09-0.87,0.18-1.24,0.36c-0.49,0.24-0.41,0.24-0.15,0.73c0.03,0.05,0.05,0.1,0.1,0.13
				c0.08,0.05,0.18,0.02,0.27,0c1.43-0.42,2.95-0.55,4.44-0.37c0.08,0.01,0.17,0.01,0.21-0.06
				C305.37,172.98,305.34,172.91,305.3,172.84z"/>
		</g>
		<g>
			<path class="st6" d="M290.64,172.47c0.12-0.21,0.24-0.42,0.36-0.63c0.05-0.08,0.1-0.16,0.16-0.2c0.08-0.05,0.18-0.05,0.27-0.04
				c0.72,0.05,1.44,0.2,2.13,0.45c0.31,0.11,0.69,0.22,0.97,0.42c0.38,0.27,0.31,0.26,0.07,0.74c-0.02,0.05-0.05,0.1-0.09,0.12
				c-0.07,0.05-0.15,0.01-0.22-0.02c-1.13-0.49-2.34-0.69-3.54-0.59c-0.06,0.01-0.14,0-0.17-0.07
				C290.57,172.6,290.6,172.53,290.64,172.47z"/>
		</g>
		<path class="st0" d="M294.8,184.41h8.51c0,0,0.13,4.43-5.18,4.43C294.63,188.85,294.8,184.41,294.8,184.41z"/>
		<g>
			<path class="st12" d="M307.58,179.88c0.3-0.72,1.49-1.77,2.22-1.79c0.73-0.02,1.45,0.32,2.04,0.81c2.74,2.33,0.88,7.78-2.83,7.73
				c-1.36-0.02-1.25-1.83-1.25-1.83"/>
		</g>
		<path class="st25" d="M258.15,257.28c0,0,2.68-28.17,6.87-36.09"/>
		<path class="st25" d="M342.61,255.2c0,0-3.33-26.08-7.51-34"/>
		<path class="st3" d="M138.02,211.09c0,0-21.98,14.67-35.9,9.57c-10.24-3.75-31.07-35.06-31.07-35.06l-16.19,6.89
			c4.23,8.24,24.61,55.14,50.01,56.92c21.21,1.48,45.83-10.92,45.83-10.92"/>
		<g>
			<path class="st3" d="M76.05,193.24c-2.15-3.92-5.4-9.17-7.48-13.13c-1.01-1.93-3.06-5.91-4.07-5.91c-1.94,0,1.23,5.65-0.08,5.82
				c-0.8,0.1-2.79-4.3-3.64-6.55c-0.76-2.01-1.7-4.52-3.12-4.52c-1.23,0,3.01,11.89,3.01,11.89s-5.57-12.15-7.08-11.95
				c-2.19,0.28,3.9,13.43,3.9,13.43s-5.52-11.27-7.14-11.06c-1.62,0.21,2.71,9.07,4.11,12.71c-1.2-2.08-5.04-9.97-6.22-9.82
				c-1.18,0.15,0.07,4.6,0.5,5.66c2.65,6.41,9.23,18.59,9.23,18.59"/>
		</g>
		<path class="st7" d="M56.29,186.11c0,0,7.82,1.55,10.4,7.31"/>
		<g>
			<g>
				<polygon class="st2" points="234.55,554.14 198.73,554.14 198.96,549.76 234.78,549.76 				"/>
				<polyline class="st3" points="230.83,506.05 231.69,536.14 229.99,549.76 206.6,534.9 203.82,502.59 				"/>
				<path class="st26" d="M206.6,534.9c0,0-4.82,8.64-6.38,11.04c-1.57,2.41-1.31,4.72-1.31,4.72s33.91,0,35.81,0
					c0.63-3.65-2.96-15.76-2.96-15.76S213.31,536.17,206.6,534.9z"/>
				<line class="st5" x1="214.18" y1="537.82" x2="222.7" y2="537.82"/>
				<line class="st5" x1="213.82" y1="540.72" x2="222.94" y2="540.72"/>
				<line class="st5" x1="213.49" y1="543.61" x2="223.26" y2="543.61"/>
			</g>
			<g>
				<path class="st2" d="M180.65,553.24l0.14-2.58h-47.69c-1.63,0-3.09-0.86-3.86-2.25l-0.28-0.05l-0.22,4.15
					c-0.01,0.15,0.04,0.3,0.14,0.42l0.09,0.11c0.64,0.72,1.56,1.13,2.54,1.13h48.18C180.19,554.14,180.62,553.74,180.65,553.24z"/>
				<path class="st3" d="M179.06,506.05l-0.1,29.86l-0.46,13.85H132.1c-1.07,0-1.9-0.87-1.84-1.94l0,0c0.04-0.8,0.58-1.53,1.34-1.81
					l21.82-9.98l-4.94-33.43"/>
				<path class="st26" d="M153.19,534.09l-22.73,11.85c-0.85,0.36-1.44,1.27-1.5,2.28l0,0c-0.07,1.35,1.26,2.44,2.45,2.44h49.38
					l-1.5-15.07C179.28,535.59,161.97,539.18,153.19,534.09z"/>
				<line class="st5" x1="140.48" y1="540.72" x2="143.42" y2="546.28"/>
				<line class="st5" x1="144.2" y1="538.78" x2="147.14" y2="544.34"/>
				<line class="st5" x1="147.93" y1="536.85" x2="150.87" y2="542.4"/>
			</g>
			<path class="st14" d="M159.5,280.89l-7.84,3.86l-4.04,12.47c-6.49,9.97-16.24,29.77-15.24,57.67
				c1.47,41.47,14.98,163.87,14.98,163.87h33.76l1.59-187.03l-0.19-64.85"/>
			<path class="st14" d="M208.48,283.14c0,0,1.65,4.54,4.09,11.67c6.79,8.06,16.06,21.9,19.67,40.5
				c7.2,37.02,3.04,183.46,3.04,183.46h-32.76l-27.07-187.79c0,0-4.67-15.87-3.28-42.31"/>
			<g>
				<path class="st27" d="M182.13,377.36c-1.91-19.84-8.87-51.64-9.23-76.11"/>
				<path class="st27" d="M147.62,297.23c0,0,19.53,10.49,64.95-2.42"/>
				<path class="st27" d="M167.79,301.18l-1.24-0.08c-1.44-0.09-2.48-1.34-2.31-2.79l0.48-4.1c0.16-1.38,1.36-2.45,2.75-2.45h2.56"
					/>
				<path class="st28" d="M170.6,296.7c-0.05,1.04-0.81,1.88-1.69,1.88c-0.88,0-1.55-0.84-1.49-1.88c0.05-1.04,0.81-1.88,1.69-1.88
					C169.99,294.81,170.66,295.66,170.6,296.7z"/>
				<path class="st27" d="M193.55,299.21c0.02-0.32-2.04-9.5-2.04-9.5"/>
				<path class="st27" d="M153.29,299.21c-0.24-0.25,3.19-9.89,3.19-9.89"/>
				<path class="st27" d="M206.38,296.47c0,0,11.42,13.15,15.89,36.5c4.47,23.35,6.96,185.8,6.96,185.8"/>
				<path class="st27" d="M189.61,299.84c0,0,0.87,9.49,22.42,5.03"/>
				<path class="st27" d="M144.2,302.95c0,0,9.9,4.6,13.09-1.78"/>
				<path class="st27" d="M166.55,301.1c0,0-0.13,22.34,1.71,24.28c1.84,1.94,7.06,2.83,7.06,2.83"/>
				<path class="st27" d="M178.46,517.32c0,0-2.34-140.14,0.08-165.83"/>
			</g>
		</g>
		<g>
			<g>
				<path class="st26" d="M216.29,225.06c-4.41-6.56-28.65-21.26-28.65-21.26c-7.62-0.95-16.33-0.74-16.33-0.74
					s-9.84,10.61-18.15,22.5c-6.93,6.93-7.71,15.59-7.57,22.75c0.2,10.19,3.73,24.9,4.57,41.01c13.89,5.05,39.99,3.9,59.78-1.78
					C209.94,287.54,220.7,231.62,216.29,225.06z"/>
			</g>
			<path class="st26" d="M171.32,203.06c0,0-13.42-2.89-33.39,6.83c-15.05,7.32-17.53,9.03-17.53,9.03l11.63,28.55l32.57-14.25"/>
			<g>
				<path class="st12" d="M165.81,202.66c-2.24,2.58-10.59,5.61-11.62,5.09c-1.03-0.51,2.13-3.06,2.5-3.72
					c-2.59,0.11-4.86,0.6-6.55,1.19c-2.12,0.74-4.4,1.31-6.48,2.14c1.38-2.02,4.64-4.61,5.9-5.2
					C154.47,199.87,160.98,199.77,165.81,202.66"/>
			</g>
			<path class="st26" d="M201.5,239.73l20.92,18.39l20.07-21.07c0,0-10.02-10.17-19.34-19.48c-18.29-18.29-35.51-13.77-35.51-13.77"
				/>
			<line class="st29" x1="215.67" y1="252.19" x2="203.11" y2="241.14"/>
			<path class="st29" d="M146.06,240.87c0,0,1.14-9.34,7.11-15.31"/>
			<line class="st29" x1="125.19" y1="216.25" x2="136.52" y2="245.49"/>
			<line class="st29" x1="219.1" y1="255.2" x2="238.7" y2="233.21"/>
			<path class="st29" d="M169.38,203.04c0,0-3.2,7.94,7.33,8.59c12.33,0.76,13.55-7.93,13.55-7.93"/>
		</g>
		<g>
			<path class="st3" d="M172.07,192.01l-0.83,12.14c0,0-0.92,5.05,6.9,5.05c7.05,0,9.5-5.41,9.5-5.41l-1.98-17.7"/>
			<path id="XMLID_5_" class="st3" d="M167.7,164.08c-3.37,7.37-8.25,22.87-0.02,28.91c1.89,1.39,5.01,1.58,8.32,0.67
				c7.18-1.97,12.22-6.82,14-11.46C192.25,176.36,179.11,152.3,167.7,164.08z"/>
			<path class="st0" d="M168.12,186.64l8.26-0.55c0,0-1.27,4.13-4.86,4.13C167.93,190.22,168.12,186.64,168.12,186.64z"/>
			<g>
				<path class="st2" d="M198.12,167.08c1.06,1.26,2.39,2.23,4.29,2.81c3.04,0.93,4.96,1.6,6.68,4.52c1.72,2.92,1.36,7.95,4.56,9.42
					c3.03,1.4,6.76-0.18,8.77,3.33c-1.06,4.14-8.16,15.15-10.89,18.92c-2.35-2.35-3.39-2.84-5.94-3.38c-2-0.43-4.14-0.14-6.09-0.77
					c-1.78-0.58-3.25-1.89-4.26-3.47c-0.65-1.02-1.14-2.17-1.97-3.05c-1.19-1.26-2.92-1.83-4.59-2.27
					c-1.06-0.28-2.15-0.54-3.05-1.16c-2.05-1.41-2.57-3.81-2.7-6.09c-0.17-2.92-0.14-5.84-0.13-8.76c0.01-3.15-2.98-4.65-4.82-6.7
					c-0.24-0.27-3.62-4.95-3-5.18c-2.95,1.11-8.38,3.08-10.69,5.23c-2.62-6.01,2.15-13.12,9.07-12.7c1,0.06,2.93-1.21,4.04-1.42
					c1.43-0.28,2.89-0.36,4.34-0.27c2.95,0.18,5.87,1.05,8.46,2.45c2.04,1.1,4.64,2.75,5.69,4.91
					C196.57,164.82,197.25,166.04,198.12,167.08z"/>
			</g>
			<path id="XMLID_401_" class="st7" d="M171.04,176.82c0,0-3.78,4.57-3.29,5.77c0.49,1.2,3.18,1.04,3.18,1.04"/>
			<g id="XMLID_399_">
				<path id="XMLID_400_" class="st6" d="M176.6,177.71c0.04,0.08,0.07,0.16,0.09,0.23c0.19,0.58,0.05,1.08-0.02,1.66
					c-0.12,0.92-1.65,0.61-1.43-0.33c0.13-0.57,0.3-1.18,0.61-1.69C176.15,177.09,176.43,177.36,176.6,177.71z"/>
			</g>
			<g id="XMLID_395_">
				<path id="XMLID_397_" class="st6" d="M167.52,175.05c0.02,0.08,0.04,0.17,0.05,0.25c0.07,0.6-0.15,1.07-0.34,1.62
					c-0.3,0.88-1.73,0.28-1.34-0.6c0.24-0.54,0.52-1.1,0.92-1.54C167.2,174.36,167.42,174.67,167.52,175.05z"/>
			</g>
			<path id="XMLID_391_" class="st6" d="M180.23,177.59c0,0,0.1-0.43-0.04-1.12c-0.14-0.66-0.6-1.49-1.29-2.1
				c-0.7-0.6-1.63-0.93-2.35-0.89c-0.36,0.01-0.64,0.13-0.82,0.21c-0.18,0.1-0.26,0.18-0.26,0.18s0.12,0.03,0.29,0.07
				c0.18,0.04,0.41,0.14,0.66,0.26c0.51,0.25,1.1,0.66,1.65,1.13c0.55,0.47,1.07,1.01,1.47,1.46c0.18,0.22,0.39,0.41,0.49,0.57
				C180.15,177.51,180.23,177.59,180.23,177.59z"/>
			<path id="XMLID_385_" class="st6" d="M170.14,172.81c0,0-0.02-0.09-0.06-0.23c-0.05-0.12-0.17-0.36-0.36-0.54
				c-0.38-0.4-1.12-0.64-1.82-0.57c-0.7,0.07-1.33,0.44-1.66,0.85c-0.33,0.41-0.38,0.77-0.38,0.77s0.1-0.01,0.23-0.05
				c0.13-0.05,0.33-0.06,0.54-0.11c0.42-0.08,0.92-0.16,1.4-0.21c0.48-0.05,0.96-0.08,1.36-0.05
				C169.78,172.7,170.14,172.83,170.14,172.81z"/>
			<path class="st7" d="M181.91,191.43c0,0-4.04,3.16-10.01,3.16"/>
			<g id="XMLID_376_">
				<path class="st3" d="M181.72,181.34c1.08-2.88,4.05-1.95,4.78-1.22c0.53,0.52,0.66,1.33,0.64,2.07
					c-0.06,1.86-0.97,3.68-2.43,4.85c-0.52,0.42-1.12,0.76-1.78,0.85c-1.85,0.27-2.83-1.26-2.64-2.8"/>
			</g>
		</g>
	</g>
</g>
<g id="DESIGNED_BY_FREEPIK">
</g>
</svg>
