<?xml version="1.0" encoding="utf-8"?>
<!-- Generator: Adobe Illustrator 27.0.0, SVG Export Plug-In . SVG Version: 6.00 Build 0)  -->
<svg version="1.0" id="Layer_1" xmlns="http://www.w3.org/2000/svg" xmlns:xlink="http://www.w3.org/1999/xlink" x="0px" y="0px"
	 viewBox="0 0 612 792" enable-background="new 0 0 612 792" xml:space="preserve">
<g>
	<g id="img_2_">
		<circle fill="#6ECEEC" cx="306.36" cy="335.37" r="102.54"/>
		<line fill="none" stroke="#FFFFFF" stroke-width="20" stroke-miterlimit="10" x1="219.09" y1="335.46" x2="394.55" y2="335.46"/>
		<path fill="none" stroke="#FFFFFF" stroke-width="18" stroke-miterlimit="10" d="M243.87,275.65
			c44.29,27.72,78.91,28.01,124.41-0.16"/>
		<path fill="none" stroke="#FFFFFF" stroke-width="18" stroke-miterlimit="10" d="M244.62,396.2
			c44.29-27.72,78.91-28.01,124.41,0.16"/>
		<path fill="none" stroke="#FFFFFF" stroke-width="18" stroke-miterlimit="10" d="M314.01,248.12
			c53.95,37.89,49.23,140.03-0.97,174.88"/>
		<path fill="none" stroke="#FFFFFF" stroke-width="18" stroke-miterlimit="10" d="M298.92,248.87
			c-53.95,37.89-49.23,140.03,0.97,174.88"/>
		<g>
			<rect x="301.81" y="251.71" fill="#DF1882" width="9.03" height="167.5"/>
			<rect x="222.51" y="304.8" fill="#DF1882" width="167.14" height="9.72"/>
		</g>
		<circle fill="none" stroke="#FFFFFF" stroke-width="18" stroke-miterlimit="10" cx="306.33" cy="335.58" r="88.17"/>
	</g>
	<g>
		<path d="M174.13,477.57h-10.35v-6.36h29.61v6.36h-10.52v27.14h-8.75V477.57z"/>
		<path d="M206.77,471.2v12.87h14.35V471.2h8.69v33.5h-8.69v-14.02h-14.35v14.02h-8.75v-33.5H206.77z"/>
		<path d="M246.38,496.11l-2.74,8.6h-9.03l11.78-33.5h11.43l11.95,33.5h-9.38l-2.97-8.6H246.38z M256.16,490.44l-2.4-7.11
			c-0.69-1.99-1.37-4.47-1.94-6.46h-0.11c-0.57,1.99-1.14,4.52-1.77,6.46l-2.29,7.11H256.16z"/>
		<path d="M274.91,471.65c3.2-0.45,7.37-0.7,11.78-0.7c7.32,0,12.06,1.14,15.78,3.58c4,2.59,6.52,6.71,6.52,12.63
			c0,6.41-2.69,10.84-6.4,13.57c-4.06,2.93-10.23,4.32-17.78,4.32c-4.52,0-7.72-0.25-9.89-0.5V471.65z M283.65,498.99
			c0.74,0.15,1.94,0.15,3.03,0.15c7.89,0.05,13.03-3.73,13.03-11.73c0.06-6.96-4.63-10.64-12.12-10.64c-1.94,0-3.2,0.15-3.94,0.3
			V498.99z"/>
		<path d="M314.69,471.65c3.2-0.45,7.37-0.7,11.78-0.7c7.32,0,12.06,1.14,15.78,3.58c4,2.59,6.52,6.71,6.52,12.63
			c0,6.41-2.69,10.84-6.4,13.57c-4.06,2.93-10.23,4.32-17.78,4.32c-4.52,0-7.72-0.25-9.89-0.5V471.65z M323.44,498.99
			c0.74,0.15,1.94,0.15,3.03,0.15c7.89,0.05,13.03-3.73,13.03-11.73c0.06-6.96-4.63-10.64-12.12-10.64c-1.94,0-3.2,0.15-3.94,0.3
			V498.99z"/>
		<path d="M377.4,490.54h-14.18v7.95h15.83v6.21h-24.58v-33.5h23.78v6.21h-15.03v6.96h14.18V490.54z"/>
		<path d="M393.69,471.2v19.29c0,5.77,2.52,8.7,6.97,8.7c4.57,0,7.09-2.78,7.09-8.7V471.2h8.69v18.79c0,10.34-6,15.26-16.06,15.26
			c-9.72,0-15.43-4.67-15.43-15.36V471.2H393.69z"/>
		<path d="M424.27,496.9c2.34,1.04,5.95,2.09,9.66,2.09c4,0,6.12-1.44,6.12-3.63c0-2.09-1.83-3.28-6.46-4.72
			c-6.4-1.94-10.58-5.02-10.58-9.89c0-5.72,5.49-10.09,14.58-10.09c4.34,0,7.55,0.8,9.83,1.69l-1.94,6.11
			c-1.54-0.65-4.29-1.59-8.06-1.59c-3.77,0-5.6,1.49-5.6,3.23c0,2.14,2.17,3.08,7.15,4.72c6.8,2.19,10,5.27,10,9.99
			c0,5.62-4.97,10.39-15.55,10.39c-4.4,0-8.75-0.99-10.92-2.04L424.27,496.9z"/>
	</g>
	<g>
		<path d="M163.74,517.17c1.08-0.2,2.63-0.31,4.11-0.31c2.29,0,3.76,0.38,4.8,1.23c0.84,0.67,1.3,1.7,1.3,2.86
			c0,1.99-1.38,3.31-3.12,3.85v0.07c1.28,0.4,2.04,1.48,2.44,3.04c0.54,2.1,0.93,3.56,1.28,4.14h-2.21
			c-0.27-0.42-0.64-1.72-1.11-3.6c-0.49-2.08-1.38-2.86-3.32-2.93h-2.02v6.53h-2.14V517.17z M165.88,524.04h2.19
			c2.29,0,3.74-1.14,3.74-2.86c0-1.95-1.55-2.8-3.81-2.82c-1.03,0-1.77,0.09-2.12,0.18V524.04z"/>
		<path d="M192.16,524.98h-6.45v5.44h7.18v1.63h-9.32v-15.08h8.96v1.63h-6.82v4.76h6.45V524.98z"/>
		<path d="M201.97,529.67c0.96,0.54,2.36,0.98,3.84,0.98c2.19,0,3.47-1.05,3.47-2.57c0-1.41-0.89-2.21-3.12-3
			c-2.71-0.87-4.38-2.15-4.38-4.27c0-2.35,2.14-4.09,5.36-4.09c1.7,0,2.93,0.36,3.67,0.74l-0.59,1.59
			c-0.54-0.27-1.65-0.72-3.15-0.72c-2.26,0-3.12,1.23-3.12,2.26c0,1.41,1.01,2.1,3.3,2.91c2.81,0.98,4.23,2.21,4.23,4.43
			c0,2.33-1.9,4.34-5.81,4.34c-1.6,0-3.35-0.43-4.23-0.96L201.97,529.67z"/>
		<path d="M235.16,524.35c0,5.19-3.47,7.94-7.7,7.94c-4.38,0-7.45-3.09-7.45-7.65c0-4.79,3.27-7.92,7.7-7.92
			C232.24,516.72,235.16,519.88,235.16,524.35z M222.3,524.6c0,3.22,1.92,6.11,5.29,6.11c3.4,0,5.31-2.84,5.31-6.26
			c0-3-1.72-6.13-5.29-6.13C224.07,518.31,222.3,521.28,222.3,524.6z"/>
		<path d="M246.68,516.97v8.92c0,3.38,1.65,4.81,3.86,4.81c2.46,0,4.03-1.48,4.03-4.81v-8.92h2.16v8.79c0,4.63-2.68,6.53-6.27,6.53
			c-3.4,0-5.95-1.77-5.95-6.44v-8.88H246.68z"/>
		<path d="M267.05,517.17c1.08-0.2,2.63-0.31,4.11-0.31c2.29,0,3.76,0.38,4.8,1.23c0.84,0.67,1.3,1.7,1.3,2.86
			c0,1.99-1.38,3.31-3.13,3.85v0.07c1.28,0.4,2.04,1.48,2.44,3.04c0.54,2.1,0.93,3.56,1.28,4.14h-2.21
			c-0.27-0.42-0.64-1.72-1.11-3.6c-0.49-2.08-1.38-2.86-3.32-2.93h-2.02v6.53h-2.14V517.17z M269.19,524.04h2.19
			c2.29,0,3.74-1.14,3.74-2.86c0-1.95-1.55-2.8-3.81-2.82c-1.03,0-1.77,0.09-2.12,0.18V524.04z"/>
		<path d="M298.54,531.55c-0.79,0.36-2.36,0.72-4.38,0.72c-4.67,0-8.19-2.68-8.19-7.63c0-4.72,3.52-7.92,8.66-7.92
			c2.07,0,3.37,0.4,3.94,0.67l-0.52,1.59c-0.81-0.36-1.97-0.63-3.35-0.63c-3.89,0-6.47,2.26-6.47,6.22c0,3.69,2.34,6.06,6.37,6.06
			c1.3,0,2.63-0.25,3.49-0.63L298.54,531.55z"/>
		<path d="M316.41,524.98h-6.45v5.44h7.18v1.63h-9.32v-15.08h8.96v1.63h-6.82v4.76h6.45V524.98z"/>
		<path d="M349.92,531.55c-0.79,0.36-2.36,0.72-4.38,0.72c-4.68,0-8.19-2.68-8.19-7.63c0-4.72,3.52-7.92,8.66-7.92
			c2.07,0,3.37,0.4,3.94,0.67l-0.52,1.59c-0.81-0.36-1.97-0.63-3.35-0.63c-3.89,0-6.47,2.26-6.47,6.22c0,3.69,2.34,6.06,6.37,6.06
			c1.3,0,2.63-0.25,3.49-0.63L349.92,531.55z"/>
		<path d="M367.78,524.98h-6.45v5.44h7.18v1.63h-9.32v-15.08h8.96v1.63h-6.82v4.76h6.45V524.98z"/>
		<path d="M377.89,532.04v-15.08h2.34l5.31,7.63c1.23,1.77,2.19,3.36,2.98,4.9l0.05-0.02c-0.2-2.01-0.25-3.85-0.25-6.2v-6.31h2.02
			v15.08h-2.16l-5.26-7.65c-1.16-1.68-2.26-3.4-3.1-5.03l-0.07,0.02c0.12,1.9,0.17,3.71,0.17,6.22v6.44H377.89z"/>
		<path d="M403.82,518.62h-5.04v-1.66h12.28v1.66h-5.07v13.42h-2.17V518.62z"/>
		<path d="M428.08,524.98h-6.45v5.44h7.18v1.63h-9.33v-15.08h8.96v1.63h-6.82v4.76h6.45V524.98z"/>
		<path d="M438.2,517.17c1.08-0.2,2.63-0.31,4.11-0.31c2.29,0,3.76,0.38,4.8,1.23c0.84,0.67,1.3,1.7,1.3,2.86
			c0,1.99-1.38,3.31-3.13,3.85v0.07c1.28,0.4,2.04,1.48,2.44,3.04c0.54,2.1,0.93,3.56,1.28,4.14h-2.21
			c-0.27-0.42-0.64-1.72-1.11-3.6c-0.49-2.08-1.38-2.86-3.32-2.93h-2.02v6.53h-2.14V517.17z M440.34,524.04h2.19
			c2.29,0,3.74-1.14,3.74-2.86c0-1.95-1.55-2.8-3.81-2.82c-1.03,0-1.77,0.09-2.12,0.18V524.04z"/>
	</g>
	<g>
		<path d="M273.77,554.45c0.04,2.07,1.49,2.92,3.18,2.92c1.21,0,1.93-0.19,2.56-0.43l0.29,1.1c-0.59,0.24-1.61,0.52-3.08,0.52
			c-2.85,0-4.55-1.7-4.55-4.24c0-2.54,1.65-4.54,4.34-4.54c3.02,0,3.83,2.42,3.83,3.97c0,0.31-0.04,0.56-0.06,0.71H273.77z
			 M278.7,553.36c0.02-0.97-0.44-2.49-2.33-2.49c-1.7,0-2.45,1.43-2.58,2.49H278.7z"/>
		<path d="M282.18,556.82c0.5,0.3,1.38,0.61,2.22,0.61c1.23,0,1.8-0.56,1.8-1.25c0-0.73-0.48-1.13-1.72-1.55
			c-1.66-0.54-2.45-1.37-2.45-2.38c0-1.36,1.21-2.47,3.2-2.47c0.94,0,1.76,0.24,2.28,0.52l-0.42,1.11c-0.36-0.21-1.03-0.49-1.9-0.49
			c-1,0-1.55,0.52-1.55,1.15c0,0.7,0.55,1.01,1.76,1.43c1.61,0.56,2.43,1.29,2.43,2.54c0,1.48-1.26,2.52-3.46,2.52
			c-1.01,0-1.95-0.23-2.6-0.57L282.18,556.82z"/>
		<path d="M292.02,547.55v2.42h2.41v1.17h-2.41v4.54c0,1.04,0.33,1.64,1.26,1.64c0.44,0,0.77-0.05,0.98-0.1l0.08,1.15
			c-0.33,0.12-0.84,0.21-1.49,0.21c-0.78,0-1.42-0.23-1.82-0.64c-0.48-0.45-0.65-1.2-0.65-2.19v-4.59h-1.43v-1.17h1.43v-2.02
			L292.02,547.55z"/>
		<path d="M295.87,557.48c0-0.64,0.48-1.1,1.15-1.1s1.13,0.45,1.13,1.1c0,0.63-0.44,1.1-1.15,1.1
			C296.33,558.58,295.87,558.11,295.87,557.48z"/>
		<path d="M307.41,548.5h-0.04l-2.16,1.06l-0.33-1.17l2.72-1.32h1.43v11.31h-1.63V548.5z"/>
		<path d="M314.54,557.31c0.36,0.03,0.78,0,1.36-0.05c0.98-0.12,1.9-0.49,2.6-1.1c0.82-0.68,1.42-1.67,1.65-3.01h-0.06
			c-0.69,0.77-1.68,1.22-2.93,1.22c-2.24,0-3.67-1.53-3.67-3.46c0-2.14,1.7-4.02,4.25-4.02c2.54,0,4.11,1.88,4.11,4.77
			c0,2.49-0.92,4.23-2.14,5.31c-0.96,0.85-2.28,1.37-3.62,1.51c-0.61,0.09-1.15,0.1-1.55,0.09V557.31z M315.16,550.8
			c0,1.41,0.94,2.4,2.39,2.4c1.13,0,2.01-0.5,2.45-1.18c0.1-0.14,0.15-0.31,0.15-0.56c0-1.93-0.78-3.41-2.54-3.41
			C316.17,548.05,315.16,549.2,315.16,550.8z"/>
		<path d="M331.46,547.08v1.01l-5.42,10.3h-1.74l5.4-10v-0.03h-6.09v-1.27H331.46z"/>
		<path d="M340.63,548.37h-4.75l-0.48,2.91c0.29-0.03,0.56-0.07,1.01-0.07c0.96,0,1.91,0.19,2.68,0.61c0.98,0.5,1.78,1.48,1.78,2.91
			c0,2.21-1.93,3.86-4.63,3.86c-1.36,0-2.51-0.35-3.1-0.7l0.42-1.17c0.52,0.28,1.53,0.63,2.66,0.63c1.59,0,2.95-0.94,2.95-2.45
			c-0.02-1.46-1.09-2.51-3.58-2.51c-0.71,0-1.26,0.07-1.72,0.12l0.8-5.43h5.95V548.37z"/>
	</g>
	<g>
		<rect x="163.71" y="553.45" width="94.98" height="0.99"/>
	</g>
	<g>
		<rect x="354.21" y="553.45" width="94.98" height="0.99"/>
	</g>
</g>
</svg>
