<?xml version="1.0" encoding="utf-8"?>
<!-- Generator: Adobe Illustrator 27.0.0, SVG Export Plug-In . SVG Version: 6.00 Build 0)  -->
<svg version="1.0" id="Layer_1" xmlns="http://www.w3.org/2000/svg" xmlns:xlink="http://www.w3.org/1999/xlink" x="0px" y="0px"
	 viewBox="0 0 1260 492" enable-background="new 0 0 1260 492" xml:space="preserve">
<g>
	<g id="img_4_">
		<g>
			<circle fill="#6ECEEC" cx="207.72" cy="245.31" r="168.11"/>
		</g>
		<g>
			<rect x="64.65" y="237.32" fill="#FFFFFF" width="287.67" height="16.3"/>
		</g>
		<g>
			<path fill="#FFFFFF" d="M206.66,189.07c-33.83,0-67.52-11.82-105.27-35.45l7.78-12.43c36.05,22.57,66.99,33.09,97.36,33.11
				c0.03,0,0.07,0,0.1,0c30.58,0,61.96-10.61,98.76-33.39l7.72,12.47C274.68,177.17,240.6,189.07,206.66,189.07z"/>
		</g>
		<g>
			<path fill="#FFFFFF" d="M306.61,351.55c-36.79-22.78-68.18-33.39-98.75-33.39c-0.04,0-0.07,0-0.1,0
				c-30.37,0.02-61.3,10.55-97.36,33.11l-7.78-12.43c75.62-47.34,134.98-47.27,211.72,0.24L306.61,351.55z"/>
		</g>
		<g>
			<path fill="#FFFFFF" d="M222.86,395.02l-8.37-12.05c37.91-26.32,61.56-79.79,61.72-139.53c0.16-58.07-22.33-108.6-60.16-135.16
				l8.43-12c41.75,29.32,66.57,84.35,66.4,147.21C290.72,307.94,264.65,366,222.86,395.02z"/>
		</g>
		<g>
			<path fill="#FFFFFF" d="M192.95,396.24c-41.79-29.01-67.85-87.08-68.03-151.54c-0.17-62.86,24.65-117.89,66.4-147.21l8.43,12
				c-37.83,26.57-60.32,77.09-60.16,135.16c0.16,59.74,23.81,113.21,61.72,139.53L192.95,396.24z"/>
		</g>
		<g>
			<g>
				<rect x="200.27" y="108.15" fill="#DF1882" width="14.81" height="274.63"/>
			</g>
			<g>
				<rect x="70.25" y="195.19" fill="#DF1882" width="274.04" height="15.94"/>
			</g>
		</g>
		<g>
			<path fill="#FFFFFF" d="M207.67,397.55c-83.75,0-151.88-68.13-151.88-151.88c0-83.75,68.13-151.88,151.88-151.88
				s151.88,68.14,151.88,151.88C359.56,329.42,291.42,397.55,207.67,397.55z M207.67,108.45c-75.66,0-137.22,61.55-137.22,137.22
				s61.55,137.22,137.22,137.22s137.22-61.56,137.22-137.22S283.33,108.45,207.67,108.45z"/>
		</g>
	</g>
	<g>
		<path d="M440.38,144.94h-28.87v-18.56h82.62v18.56h-29.35v79.17h-24.4V144.94z"/>
		<path d="M531.45,126.38v37.56h40.03v-37.56h24.24v97.73h-24.24v-40.89h-40.03v40.89h-24.4v-97.73H531.45z"/>
		<path d="M641.98,199.03l-7.66,25.09h-25.2l32.86-97.73h31.9l33.33,97.73h-26.16l-8.29-25.09H641.98z M669.26,182.5l-6.7-20.74
			c-1.91-5.8-3.83-13.05-5.42-18.85h-0.32c-1.6,5.8-3.19,13.2-4.94,18.85l-6.38,20.74H669.26z"/>
		<path d="M721.57,127.69c8.93-1.3,20.58-2.03,32.86-2.03c20.42,0,33.65,3.33,44.02,10.44c11.17,7.54,18.18,19.58,18.18,36.83
			c0,18.71-7.5,31.61-17.86,39.59c-11.32,8.56-28.55,12.62-49.6,12.62c-12.6,0-21.53-0.72-27.59-1.45V127.69z M745.98,207.44
			c2.07,0.44,5.42,0.44,8.45,0.44c22.01,0.14,36.37-10.88,36.37-34.22c0.16-20.3-12.92-31.03-33.81-31.03c-5.42,0-8.93,0.43-11,0.87
			V207.44z"/>
		<path d="M832.59,127.69c8.93-1.3,20.58-2.03,32.86-2.03c20.42,0,33.65,3.33,44.02,10.44c11.17,7.54,18.18,19.58,18.18,36.83
			c0,18.71-7.5,31.61-17.86,39.59c-11.32,8.56-28.55,12.62-49.6,12.62c-12.6,0-21.53-0.72-27.59-1.45V127.69z M856.99,207.44
			c2.07,0.44,5.42,0.44,8.45,0.44c22.01,0.14,36.37-10.88,36.37-34.22c0.16-20.3-12.92-31.03-33.81-31.03c-5.42,0-8.93,0.43-11,0.87
			V207.44z"/>
		<path d="M1007.56,182.79H968v23.2h44.18v18.13H943.6v-97.73h66.35v18.12H968v20.3h39.56V182.79z"/>
		<path d="M1053.02,126.38v56.26c0,16.82,7.02,25.38,19.46,25.38c12.76,0,19.78-8.12,19.78-25.38v-56.26h24.24v54.81
			c0,30.16-16.75,44.52-44.82,44.52c-27.12,0-43.07-13.63-43.07-44.81v-54.52H1053.02z"/>
		<path d="M1138.35,201.35c6.54,3.04,16.59,6.09,26.96,6.09c11.17,0,17.07-4.21,17.07-10.58c0-6.09-5.1-9.57-18.02-13.78
			c-17.86-5.66-29.51-14.65-29.51-28.86c0-16.68,15.31-29.44,40.67-29.44c12.12,0,21.05,2.32,27.43,4.93l-5.42,17.83
			c-4.31-1.88-11.96-4.64-22.49-4.64c-10.53,0-15.63,4.35-15.63,9.42c0,6.24,6.06,8.99,19.94,13.78
			c18.98,6.38,27.91,15.37,27.91,29.15c0,16.38-13.88,30.31-43.38,30.31c-12.28,0-24.4-2.9-30.46-5.95L1138.35,201.35z"/>
	</g>
	<g>
		<path d="M411.66,239.45c3.08-0.57,7.49-0.89,11.7-0.89c6.51,0,10.71,1.08,13.66,3.5c2.38,1.91,3.71,4.84,3.71,8.15
			c0,5.67-3.92,9.42-8.89,10.95v0.19c3.64,1.15,5.81,4.2,6.93,8.66c1.54,5.99,2.66,10.12,3.64,11.78h-6.3
			c-0.77-1.21-1.82-4.9-3.15-10.25c-1.4-5.92-3.92-8.15-9.46-8.34h-5.74v18.59h-6.09V239.45z M417.76,259h6.23
			c6.51,0,10.65-3.25,10.65-8.15c0-5.54-4.41-7.96-10.86-8.02c-2.94,0-5.04,0.25-6.02,0.51V259z"/>
		<path d="M491.3,261.68h-18.35v15.47h20.45v4.65h-26.54v-42.92h25.49v4.65h-19.4v13.56h18.35V261.68z"/>
		<path d="M517.99,275.05c2.73,1.53,6.72,2.8,10.93,2.8c6.23,0,9.88-2.99,9.88-7.32c0-4.01-2.52-6.3-8.89-8.53
			c-7.71-2.48-12.47-6.11-12.47-12.16c0-6.69,6.09-11.65,15.27-11.65c4.83,0,8.33,1.02,10.44,2.1l-1.68,4.52
			c-1.54-0.76-4.69-2.04-8.96-2.04c-6.44,0-8.9,3.5-8.9,6.43c0,4.01,2.87,5.99,9.39,8.28c7.98,2.8,12.05,6.3,12.05,12.61
			c0,6.62-5.39,12.35-16.53,12.35c-4.55,0-9.53-1.21-12.05-2.74L517.99,275.05z"/>
		<path d="M611.22,259.89c0,14.77-9.88,22.6-21.92,22.6c-12.47,0-21.22-8.79-21.22-21.78c0-13.63,9.31-22.54,21.92-22.54
			C602.88,238.18,611.22,247.16,611.22,259.89z M574.59,260.59c0,9.17,5.46,17.38,15.06,17.38c9.67,0,15.13-8.09,15.13-17.83
			c0-8.53-4.9-17.45-15.06-17.45C579.63,242.7,574.59,251.17,574.59,260.59z"/>
		<path d="M642.74,238.88v25.41c0,9.62,4.69,13.69,11,13.69c7,0,11.49-4.2,11.49-13.69v-25.41h6.16v25.02
			c0,13.18-7.63,18.59-17.86,18.59c-9.67,0-16.95-5.03-16.95-18.34v-25.28H642.74z"/>
		<path d="M699.48,239.45c3.08-0.57,7.49-0.89,11.7-0.89c6.51,0,10.72,1.08,13.66,3.5c2.38,1.91,3.71,4.84,3.71,8.15
			c0,5.67-3.92,9.42-8.89,10.95v0.19c3.64,1.15,5.81,4.2,6.93,8.66c1.54,5.99,2.66,10.12,3.64,11.78h-6.3
			c-0.77-1.21-1.82-4.9-3.15-10.25c-1.4-5.92-3.92-8.15-9.46-8.34h-5.74v18.59h-6.09V239.45z M705.57,259h6.23
			c6.51,0,10.65-3.25,10.65-8.15c0-5.54-4.41-7.96-10.86-8.02c-2.94,0-5.04,0.25-6.02,0.51V259z"/>
		<path d="M787.87,280.4c-2.24,1.02-6.72,2.04-12.47,2.04c-13.31,0-23.32-7.64-23.32-21.71c0-13.44,10.02-22.54,24.65-22.54
			c5.88,0,9.59,1.15,11.21,1.91l-1.47,4.52c-2.31-1.02-5.6-1.78-9.53-1.78c-11.07,0-18.42,6.43-18.42,17.7
			c0,10.51,6.65,17.26,18.14,17.26c3.71,0,7.49-0.7,9.95-1.78L787.87,280.4z"/>
		<path d="M837.46,261.68h-18.35v15.47h20.45v4.65h-26.54v-42.92h25.49v4.65h-19.4v13.56h18.35V261.68z"/>
		<path d="M930.34,280.4c-2.24,1.02-6.72,2.04-12.47,2.04c-13.31,0-23.32-7.64-23.32-21.71c0-13.44,10.02-22.54,24.65-22.54
			c5.88,0,9.59,1.15,11.21,1.91l-1.47,4.52c-2.31-1.02-5.6-1.78-9.53-1.78c-11.07,0-18.42,6.43-18.42,17.7
			c0,10.51,6.65,17.26,18.14,17.26c3.71,0,7.49-0.7,9.95-1.78L930.34,280.4z"/>
		<path d="M979.93,261.68h-18.35v15.47h20.45v4.65h-26.54v-42.92h25.49v4.65h-19.4v13.56h18.35V261.68z"/>
		<path d="M1007.46,281.8v-42.92h6.65l15.13,21.71c3.5,5.03,6.23,9.55,8.47,13.94l0.14-0.06c-0.56-5.73-0.7-10.95-0.7-17.64v-17.96
			h5.74v42.92h-6.16l-14.99-21.78c-3.29-4.78-6.44-9.68-8.82-14.33l-0.21,0.06c0.35,5.41,0.49,10.57,0.49,17.7v18.34H1007.46z"/>
		<path d="M1080.02,243.59h-14.36v-4.71h34.95v4.71h-14.43v38.21h-6.16V243.59z"/>
		<path d="M1147.82,261.68h-18.35v15.47h20.45v4.65h-26.54v-42.92h25.49v4.65h-19.4v13.56h18.35V261.68z"/>
		<path d="M1175.35,239.45c3.08-0.57,7.49-0.89,11.7-0.89c6.51,0,10.72,1.08,13.66,3.5c2.38,1.91,3.71,4.84,3.71,8.15
			c0,5.67-3.92,9.42-8.89,10.95v0.19c3.64,1.15,5.81,4.2,6.93,8.66c1.54,5.99,2.66,10.12,3.64,11.78h-6.3
			c-0.77-1.21-1.82-4.9-3.15-10.25c-1.4-5.92-3.92-8.15-9.46-8.34h-5.74v18.59h-6.09V239.45z M1181.45,259h6.23
			c6.51,0,10.65-3.25,10.65-8.15c0-5.54-4.41-7.96-10.86-8.02c-2.94,0-5.04,0.25-6.02,0.51V259z"/>
	</g>
	<g>
		<rect x="411.85" y="306.19" width="794.79" height="2.01"/>
	</g>
	<g>
		<path d="M413.27,330.81c2.16-0.32,5.37-0.57,8.93-0.57c4.4,0,7.48,0.61,9.59,2.14c1.76,1.29,2.73,3.19,2.73,5.7
			c0,3.47-2.68,5.86-5.24,6.71v0.12c2.07,0.77,3.21,2.59,3.96,5.09c0.92,3.07,1.85,6.63,2.42,7.68h-6.87
			c-0.48-0.77-1.19-2.99-2.07-6.34c-0.79-3.39-2.07-4.32-4.8-4.36h-2.02v10.71h-6.65V330.81z M419.91,342.52h2.64
			c3.34,0,5.33-1.54,5.33-3.92c0-2.5-1.85-3.76-4.93-3.8c-1.63,0-2.55,0.12-3.04,0.2V342.52z"/>
		<path d="M446.27,349.76c0.22,2.54,2.95,3.76,6.07,3.76c2.29,0,4.14-0.28,5.94-0.81l0.88,4.16c-2.2,0.81-4.88,1.21-7.79,1.21
			c-7.3,0-11.49-3.88-11.49-10.06c0-5.01,3.39-10.54,10.87-10.54c6.95,0,9.59,4.97,9.59,9.86c0,1.05-0.13,1.98-0.22,2.42H446.27z
			 M454.14,345.55c0-1.49-0.7-4-3.78-4c-2.82,0-3.96,2.34-4.14,4H454.14z"/>
		<path d="M466.29,352.3c1.23,0.69,3.79,1.5,5.77,1.5c2.02,0,2.86-0.65,2.86-1.66c0-1.01-0.66-1.5-3.17-2.26
			c-4.45-1.37-6.16-3.6-6.12-5.94c0-3.68,3.43-6.46,8.76-6.46c2.51,0,4.75,0.52,6.07,1.13l-1.19,4.24
			c-0.97-0.48-2.82-1.13-4.67-1.13c-1.63,0-2.55,0.61-2.55,1.62c0,0.93,0.84,1.41,3.48,2.26c4.09,1.29,5.81,3.19,5.85,6.1
			c0,3.68-3.17,6.38-9.33,6.38c-2.82,0-5.33-0.57-6.95-1.37L466.29,352.3z"/>
		<path d="M494.89,332.26v5.66h4.8v4.53h-4.8v7.15c0,2.38,0.62,3.47,2.64,3.47c0.84,0,1.5-0.08,1.98-0.16l0.04,4.65
			c-0.88,0.32-2.46,0.53-4.36,0.53c-2.16,0-3.96-0.69-5.02-1.7c-1.23-1.17-1.85-3.07-1.85-5.86v-8.08h-2.86v-4.53h2.86v-4.28
			L494.89,332.26z"/>
		<path d="M526.57,347.57c0,7.23-5.59,10.55-11.35,10.55c-6.29,0-11.13-3.8-11.13-10.18c0-6.38,4.58-10.46,11.49-10.46
			C522.17,337.47,526.57,341.63,526.57,347.57z M510.99,347.78c0,3.39,1.54,5.94,4.4,5.94c2.6,0,4.27-2.38,4.27-5.94
			c0-2.95-1.23-5.94-4.27-5.94C512.18,341.84,510.99,344.87,510.99,347.78z"/>
		<path d="M532.68,344.42c0-2.91-0.09-4.81-0.18-6.5h5.76l0.22,3.64h0.18c1.1-2.87,3.74-4.08,5.81-4.08c0.62,0,0.92,0,1.41,0.08
			v5.78c-0.48-0.08-1.06-0.16-1.8-0.16c-2.46,0-4.14,1.21-4.58,3.11c-0.09,0.4-0.13,0.89-0.13,1.37v10.02h-6.69V344.42z"/>
		<path d="M556.18,349.76c0.22,2.54,2.95,3.76,6.07,3.76c2.29,0,4.14-0.28,5.94-0.81l0.88,4.16c-2.2,0.81-4.88,1.21-7.79,1.21
			c-7.31,0-11.49-3.88-11.49-10.06c0-5.01,3.39-10.54,10.87-10.54c6.95,0,9.59,4.97,9.59,9.86c0,1.05-0.13,1.98-0.22,2.42H556.18z
			 M564.05,345.55c0-1.49-0.7-4-3.79-4c-2.82,0-3.96,2.34-4.14,4H564.05z"/>
	</g>
	<g>
		<path d="M725,330.44v27.23h-6.73v-27.23H725z"/>
		<path d="M732.7,344.22c0-2.46-0.09-4.57-0.18-6.3h5.81l0.31,2.71h0.13c0.88-1.25,3.08-3.15,6.64-3.15c4.4,0,7.7,2.67,7.7,8.48
			v11.72h-6.69v-10.95c0-2.54-0.97-4.28-3.39-4.28c-1.85,0-2.95,1.17-3.39,2.3c-0.18,0.36-0.26,0.97-0.26,1.54v11.39h-6.69V344.22z"
			/>
		<path d="M760.42,352.3c1.23,0.69,3.78,1.5,5.76,1.5c2.02,0,2.86-0.65,2.86-1.66c0-1.01-0.66-1.5-3.17-2.26
			c-4.44-1.37-6.16-3.6-6.12-5.94c0-3.68,3.43-6.46,8.76-6.46c2.51,0,4.75,0.52,6.07,1.13l-1.19,4.24
			c-0.97-0.48-2.82-1.13-4.66-1.13c-1.63,0-2.55,0.61-2.55,1.62c0,0.93,0.84,1.41,3.48,2.26c4.09,1.29,5.81,3.19,5.85,6.1
			c0,3.68-3.17,6.38-9.33,6.38c-2.82,0-5.32-0.57-6.95-1.37L760.42,352.3z"/>
		<path d="M781.54,344.54c0-2.59-0.09-4.81-0.18-6.63h5.81l0.31,2.75h0.09c1.58-2.1,4.05-3.19,7.17-3.19
			c4.71,0,8.93,3.76,8.93,10.06c0,7.19-4.97,10.59-9.77,10.59c-2.6,0-4.62-0.97-5.59-2.26h-0.09v9.82h-6.69V344.54z M788.23,349.19
			c0,0.49,0.04,0.93,0.13,1.29c0.44,1.66,1.98,2.91,3.92,2.91c2.9,0,4.62-2.22,4.62-5.58c0-3.15-1.54-5.54-4.53-5.54
			c-1.89,0-3.56,1.29-4,3.11c-0.09,0.32-0.13,0.73-0.13,1.09V349.19z"/>
		<path d="M816.74,332.42c0,1.7-1.41,3.07-3.61,3.07c-2.11,0-3.52-1.37-3.48-3.07c-0.04-1.78,1.36-3.11,3.52-3.11
			S816.7,330.64,816.74,332.42z M809.83,357.68v-19.76h6.69v19.76H809.83z"/>
		<path d="M823.87,344.42c0-2.91-0.09-4.81-0.18-6.5h5.76l0.22,3.64h0.18c1.1-2.87,3.74-4.08,5.81-4.08c0.62,0,0.92,0,1.41,0.08
			v5.78c-0.48-0.08-1.06-0.16-1.8-0.16c-2.46,0-4.14,1.21-4.58,3.11c-0.09,0.4-0.13,0.89-0.13,1.37v10.02h-6.69V344.42z"/>
		<path d="M847.36,349.76c0.22,2.54,2.95,3.76,6.07,3.76c2.29,0,4.14-0.28,5.94-0.81l0.88,4.16c-2.2,0.81-4.88,1.21-7.79,1.21
			c-7.3,0-11.49-3.88-11.49-10.06c0-5.01,3.39-10.54,10.87-10.54c6.95,0,9.59,4.97,9.59,9.86c0,1.05-0.13,1.98-0.22,2.42H847.36z
			 M855.24,345.55c0-1.49-0.7-4-3.78-4c-2.82,0-3.96,2.34-4.14,4H855.24z"/>
	</g>
	<g>
		<path d="M1028.38,346.16h-10.91v6.46h12.19v5.05h-18.92v-27.23h18.31v5.05h-11.57v5.66h10.91V346.16z"/>
		<path d="M1035.99,344.22c0-2.46-0.09-4.57-0.18-6.3h5.63l0.31,2.67h0.13c0.92-1.25,2.82-3.11,6.51-3.11c2.77,0,4.97,1.29,5.9,3.35
			h0.09c0.79-1.01,1.76-1.82,2.77-2.38c1.19-0.65,2.51-0.97,4.09-0.97c4.14,0,7.26,2.67,7.26,8.57v11.64H1062v-10.75
			c0-2.87-1.01-4.53-3.17-4.53c-1.54,0-2.64,0.97-3.08,2.14c-0.18,0.44-0.26,1.09-0.26,1.58v11.56h-6.51V346.6
			c0-2.5-0.97-4.2-3.08-4.2c-1.72,0-2.73,1.21-3.12,2.22c-0.22,0.48-0.26,1.05-0.26,1.54v11.52h-6.51V344.22z"/>
		<path d="M1075.81,344.54c0-2.59-0.09-4.81-0.18-6.63h5.81l0.31,2.75h0.09c1.58-2.1,4.05-3.19,7.17-3.19
			c4.71,0,8.93,3.76,8.93,10.06c0,7.19-4.97,10.59-9.77,10.59c-2.6,0-4.62-0.97-5.59-2.26h-0.09v9.82h-6.69V344.54z M1082.5,349.19
			c0,0.49,0.04,0.93,0.13,1.29c0.44,1.66,1.98,2.91,3.92,2.91c2.9,0,4.62-2.22,4.62-5.58c0-3.15-1.54-5.54-4.53-5.54
			c-1.89,0-3.56,1.29-4,3.11c-0.09,0.32-0.13,0.73-0.13,1.09V349.19z"/>
		<path d="M1125.48,347.57c0,7.23-5.59,10.55-11.35,10.55c-6.29,0-11.13-3.8-11.13-10.18c0-6.38,4.58-10.46,11.49-10.46
			C1121.08,337.47,1125.48,341.63,1125.48,347.57z M1109.91,347.78c0,3.39,1.54,5.94,4.4,5.94c2.6,0,4.27-2.38,4.27-5.94
			c0-2.95-1.23-5.94-4.27-5.94C1111.09,341.84,1109.91,344.87,1109.91,347.78z"/>
		<path d="M1135.82,337.92l1.72,8.08c0.44,2.06,0.88,4.24,1.23,6.5h0.09c0.44-2.26,1.06-4.53,1.58-6.46l2.29-8.12h5.28l2.16,7.88
			c0.57,2.22,1.14,4.44,1.58,6.71h0.09c0.31-2.26,0.75-4.49,1.23-6.75l1.85-7.84h6.56l-6.6,19.76h-6.29l-2.02-6.95
			c-0.53-1.94-0.92-3.72-1.37-6.14h-0.09c-0.4,2.46-0.84,4.28-1.41,6.14l-2.16,6.95h-6.29l-6.25-19.76H1135.82z"/>
		<path d="M1171.07,349.76c0.22,2.54,2.95,3.76,6.07,3.76c2.29,0,4.14-0.28,5.94-0.81l0.88,4.16c-2.2,0.81-4.88,1.21-7.79,1.21
			c-7.31,0-11.49-3.88-11.49-10.06c0-5.01,3.39-10.54,10.87-10.54c6.95,0,9.59,4.97,9.59,9.86c0,1.05-0.13,1.98-0.22,2.42H1171.07z
			 M1178.94,345.55c0-1.49-0.7-4-3.79-4c-2.82,0-3.96,2.34-4.14,4H1178.94z"/>
		<path d="M1191.13,344.42c0-2.91-0.09-4.81-0.18-6.5h5.76l0.22,3.64h0.18c1.1-2.87,3.74-4.08,5.81-4.08c0.62,0,0.92,0,1.41,0.08
			v5.78c-0.48-0.08-1.06-0.16-1.8-0.16c-2.46,0-4.14,1.21-4.58,3.11c-0.09,0.4-0.13,0.89-0.13,1.37v10.02h-6.69V344.42z"/>
	</g>
</g>
<g>
</g>
</svg>
