<?xml version="1.0" encoding="utf-8"?>
<!-- Generator: Adobe Illustrator 27.0.0, SVG Export Plug-In . SVG Version: 6.00 Build 0)  -->
<svg version="1.0" id="Layer_1" xmlns="http://www.w3.org/2000/svg" xmlns:xlink="http://www.w3.org/1999/xlink" x="0px" y="0px"
	 viewBox="0 0 1260 854.7" enable-background="new 0 0 1260 854.7" xml:space="preserve">
<g>
	<circle fill="#40BBEC" cx="623.56" cy="343.63" r="335.42"/>
</g>
<g>
	<rect x="338.1" y="327.67" fill="#FFFFFF" width="573.96" height="32.52"/>
</g>
<g>
	<path fill="#FFFFFF" d="M621.44,231.41c-67.5,0-134.72-23.58-210.04-70.73l15.53-24.81c71.93,45.03,133.65,66.02,194.25,66.07
		c0.07,0,0.14,0,0.21,0c61.01,0,123.62-21.17,197.04-66.63l15.41,24.88C757.15,207.67,689.16,231.41,621.44,231.41z"/>
</g>
<g>
	<path fill="#FFFFFF" d="M820.86,555.59c-73.41-45.45-136.03-66.63-197.04-66.63c-0.07,0-0.14,0-0.21,0
		c-60.59,0.05-122.31,21.04-194.24,66.07l-15.53-24.81c150.88-94.45,269.31-94.31,422.42,0.48L820.86,555.59z"/>
</g>
<g>
	<path fill="#FFFFFF" d="M653.77,642.32l-16.69-24.04c75.64-52.52,122.83-159.19,123.15-278.4
		c0.31-115.86-44.56-216.67-120.04-269.68l16.82-23.95c83.29,58.5,132.82,168.29,132.48,293.71
		C789.15,468.57,737.14,584.43,653.77,642.32z"/>
</g>
<g>
	<path fill="#FFFFFF" d="M594.08,644.75C510.7,586.87,458.7,471.01,458.35,342.4c-0.34-125.41,49.19-235.21,132.48-293.71
		l16.82,23.95c-75.47,53.01-120.35,153.82-120.04,269.68c0.32,119.2,47.51,225.88,123.15,278.4L594.08,644.75z"/>
</g>
<g>
	<g>
		<rect x="608.68" y="69.97" fill="#DF1882" width="29.54" height="547.93"/>
	</g>
	<g>
		<rect x="349.27" y="243.63" fill="#DF1882" width="546.76" height="31.81"/>
	</g>
</g>
<g>
	<path fill="#FFFFFF" d="M623.46,647.38c-167.1,0-303.04-135.94-303.04-303.04c0-167.1,135.94-303.04,303.04-303.04
		s303.04,135.94,303.04,303.04C926.49,511.44,790.55,647.38,623.46,647.38z M623.46,70.57c-150.96,0-273.77,122.81-273.77,273.77
		S472.5,618.11,623.46,618.11S897.23,495.3,897.23,344.34S774.41,70.57,623.46,70.57z"/>
</g>
</svg>
